<svg xmlns="http://www.w3.org/2000/svg" viewBox="0 0 2043.29 355.85">
  <defs>
    <style>
      .a{fill:#231f20;}
    </style>
  </defs>
  <title>
    miscreant
  </title>
  <path d="M146.42 355.85c-19.38-1.37-42.4-9.52-53.07-34.23-5.7-13.2-5.15-29.31-6.31-44.19-.58-7.36-2.8-11.34-10.31-11.72a2.91 2.91 0 0 1-1.62-.91c-16.34-15.89-34.07-30.64-48.45-48.14-8.75-10.64-12.35-25.51-17.9-38.63-.07-.18 4.91-3.82 6.95-3.34 12.25 2.86 24.19 7.1 36.48 9.65 17.22 3.57 34.57 7.49 52 8.68 24.73 1.69 49.64 1.72 74.45 1.12a337.17 337.17 0 0 0 50.46-5.06c17.8-3.15 35.19-8.53 52.85-12.56 1.31-.3 4.57 2.25 4.81 3.8 4.88 31.48-17.6 47.49-37.25 65-5.68 5.07-11.13 11-17.8 14.24-16.61 8.06-13.76 24.26-14 36.76-.91 39.37-31.59 59.08-71.29 59.53zm69.8-99.2l-2.54-.32c0-5 .06-10 0-15-.2-13.66-4.19-17.65-17.86-16.91-9.61.52-19.38 3.43-28.71 2.3-10.06-1.22-12.25 3.44-13.45 11.11-.69 4.39-1.43 8.77-2.15 13.15-.52-4.89-.68-9.86-1.69-14.64-.7-3.27-2.3-8.8-4-9-14-1.62-28.12-3.06-42.15-2.6-3.92.13-10.73 6.61-10.91 10.42a439.43 439.43 0 0 0 .73 55.45c.83 10.39 2.25 22.55 8.13 30.37 18.51 24.66 44 32.13 73.51 22 14.11-4.85 28-12.57 31.85-27.57 4.93-19.1 6.31-39.13 9.23-58.76zm-150-146.5c-12.52 1.09-24.88 1.86-37.15 3.39-4.89.61-9.49 3.32-14.37 4.33-2.78.58-7.13.77-8.56-.84-3-3.31-6.6-8.23-6.11-12 1.76-13.22 13.59-16.73 23.71-21.7 19.11-9.39 39.44-10.36 59.35-5.52 13.11 3.18 25.8 9.65 37.31 16.84 3.33 2.08 4.09 12.6 2.14 17.8-3.12 8.36-10.72 8.22-17.89 3.38a3.39 3.39 0 0 0-1.39-.43zm263.85-38.84c-1.27 46.17-28.2 79.48-61 85.09-57.4 9.81-91.77-36.77-92.8-75.15-1-35.78 32.41-76.45 70.67-80.79 44.62-5.06 84.97 31.94 83.13 70.85zm-76.39 80.21c45.29.82 68.22-38.46 70.4-73.87 2.76-44.88-33.26-70.38-63.72-71.74-37.3-1.67-79.58 36.68-79.24 69.95.41 39.61 31.79 76.72 72.56 75.67z"/>
  <path d="M255.31 103.4c-14.09 0-25.4-11-25.39-24.81 0-13.59 10.92-24.3 24.79-24.33 14.38 0 25.57 10.71 25.55 24.53a24.66 24.66 0 0 1-24.95 24.61z"/>
  <path class="a" d="M608.11 274.4v-12q25.59 0 25.6-20v-72.8q0-44.4-33.2-44.4-28.8 0-39.6 33.2v78q0 26 26 26v12h-84v-12q24.39 0 24.4-27.6V180q0-54.8-33.2-54.8-40 0-40 48.8v66.8q0 21.6 26 21.6v12h-82v-12q22.4 0 22.4-20v-102q0-12.39-27.2-12.4v-10.4l57.6-14q1.59 1.6 1.6 8v24q6.39-12 20.8-22t34-10a47.9 47.9 0 0 1 15.4 2.8 67.33 67.33 0 0 1 15.2 7.4 54.54 54.54 0 0 1 12 10.6 31.06 31.06 0 0 1 6.6 12.8q7.59-15.2 23.4-24.4a64.66 64.66 0 0 1 33-9.2q24 0 38.4 15.2t14.4 42.8v80.8q0 20 26 20v12zm109.59 0v-12q27.6 0 27.6-24.4v-79.6q0-31.59-24.4-31.6V116l58-12.4v136q0 22.8 30.4 22.8v12zm41.6-214.8q-21.21 0-21.2-24.4.01-22.8 22.81-22.8 21.6 0 21.6 22.8-.01 24.4-23.2 24.4zm177.61 97.2q-18.4-41.19-48.8-41.2a38.55 38.55 0 0 0-21.6 6q-9.21 6-9.2 20 0 8 7.4 13.64a90.09 90.09 0 0 0 18.4 10.42q11 4.81 23.8 9.62a145.71 145.71 0 0 1 23.8 11.43 68.75 68.75 0 0 1 18.4 15.84q7.4 9.22 7.4 22.86a51.5 51.5 0 0 1-4.4 21.65 48.17 48.17 0 0 1-12.2 16.44 64.52 64.52 0 0 1-18 11 89.53 89.53 0 0 1-21.4 5.81q-20 0-35.6-10.4-8.8 6.8-24 8.8a290.81 290.81 0 0 1-6.4-62.4h10.8a138.05 138.05 0 0 0 9.6 24.2 56.34 56.34 0 0 0 11.6 15.6 37 37 0 0 0 14.4 8.29 62.57 62.57 0 0 0 18 2.4q33.2 0 33.2-26a29.78 29.78 0 0 0-2.6-13 23.94 23.94 0 0 0-8-9.2 73.22 73.22 0 0 0-13.4-7.2q-8-3.39-18.8-7-8.4-2.79-18-7a93.37 93.37 0 0 1-17.8-10.2 54.91 54.91 0 0 1-13.6-14.2 33.74 33.74 0 0 1-5.4-19 60.4 60.4 0 0 1 3.2-20 42.92 42.92 0 0 1 9.8-16 44.58 44.58 0 0 1 17-10.6q10.4-3.8 24.8-3.8 17.19 0 33.6 9.6a45.42 45.42 0 0 1 15.6-8 201.89 201.89 0 0 1 7.2 51.6zm186.79 84a52.42 52.42 0 0 1-11.6 18.6 68.66 68.66 0 0 1-17 12.8 80.72 80.72 0 0 1-19.8 7.4 89 89 0 0 1-20 2.4q-17.61 0-31.6-6.6a67.57 67.57 0 0 1-23.6-18.2 80.81 80.81 0 0 1-14.6-27.2 109.35 109.35 0 0 1-5-33.6 115.65 115.65 0 0 1 5.4-35.6 84.57 84.57 0 0 1 16.4-29.6 77.28 77.28 0 0 1 27.6-20.2q16.59-7.4 39-7.4a66.39 66.39 0 0 1 19 2.8 61 61 0 0 1 16.8 7.8 39.66 39.66 0 0 1 11.8 12.2 29.4 29.4 0 0 1 4.4 15.6q0 8-6.8 13.8a22.35 22.35 0 0 1-14.8 5.8q-16.39 0-16.39-18.2a46.84 46.84 0 0 1 .6-5.24 49.93 49.93 0 0 0 .6-7.27q0-8.06-7.4-11.7a34.59 34.59 0 0 0-15.4-3.63q-11.61 0-19.8 6.22a50.05 50.05 0 0 0-13.6 16 80.26 80.26 0 0 0-8 21.86 109.81 109.81 0 0 0-2.6 23.26 132.24 132.24 0 0 0 3.2 29.89 78.2 78.2 0 0 0 9.6 24.07 47 47 0 0 0 16.4 16q10 5.81 24 5.81 26.79 0 42.8-24zm18 33.6v-12q26 0 26-22.8v-84q0-28.8-27.6-28.8V116q15.2-3.2 30.71-6.2t30.49-6.2V142l2 1.6a41.53 41.53 0 0 1 5.37-12 72 72 0 0 1 10.34-13 66.51 66.51 0 0 1 13.73-10.6 31.18 31.18 0 0 1 15.92-4.4q30.23 0 30.24 27.6 0 22.8-18.4 22.8-16.41 0-16.4-14.8 0-6.39 1.2-9.6h-7.14q-11.89 0-19 7.6a51 51 0 0 0-10.91 18.4 106 106 0 0 0-5.15 22.6q-1.39 11.8-1.78 19.8v42.8q0 21.6 30.8 21.6v12zm299.21-39.6q-10.41 22.41-28 34.8t-41.6 12.4q-20 0-35.2-6.8a72.82 72.82 0 0 1-25.4-18.4 77.39 77.39 0 0 1-15.4-27.6 109.25 109.25 0 0 1-5.2-34 105.62 105.62 0 0 1 5.6-34.4 96.43 96.43 0 0 1 15.8-29.2 77.31 77.31 0 0 1 24.6-20.4 67.52 67.52 0 0 1 32-7.6 105.17 105.17 0 0 1 22.6 2.6 59 59 0 0 1 22.2 10.2q10.4 7.6 18 21.8t10 37.4a30.51 30.51 0 0 1-1.2 8.8h-106.4q-7.6 0-7.6 6a90.61 90.61 0 0 0 4 27.2 73.39 73.39 0 0 0 11.2 22.4 51.32 51.32 0 0 0 17.6 15 49.56 49.56 0 0 0 23.2 5.4q16.8 0 29-9.6a110.19 110.19 0 0 0 21.4-22.4zm-54.4-62.4q16.4 0 16.4-16.8a48 48 0 0 0-10.2-26.6q-9-11.4-26.2-11.4a34.12 34.12 0 0 0-16.8 4.2 41.87 41.87 0 0 0-13 11.2 50.45 50.45 0 0 0-8.2 16 62.2 62.2 0 0 0-2.8 18.6q0 4.8 8.8 4.8zm242.79 85.2q-6 21.21-32 21.2-22.8 0-28.8-26-28.8 26-61.2 26-21.21 0-31.2-9t-10-28.6q0-49.2 99.2-67.2v-15.6q0-39.2-30.59-39.2-13.28 0-22.94 4.4t-9.66 16.8a9.61 9.61 0 0 1 3.6 5 20.89 20.89 0 0 1 1.2 7q0 15.21-18.4 15.2a16.53 16.53 0 0 1-11.6-4.4q-4.8-4.4-4.8-13.6a31.15 31.15 0 0 1 5.62-17.6 54.43 54.43 0 0 1 14.64-14.6 82.1 82.1 0 0 1 45.14-13.8q33.3 0 47.35 12.4t14 41.2V244q0 14.8 13.6 14.8a20.71 20.71 0 0 0 12.45-4.4zm-62.4-70a168.58 168.58 0 0 0-24.55 4.2 84 84 0 0 0-21.53 8.4 46.14 46.14 0 0 0-15.29 13.8q-5.83 8.4-5.83 20.8 0 26 25.35 26 11.27 0 18.71-3.4a33.21 33.21 0 0 0 12.07-9 44.16 44.16 0 0 0 7.24-12.4 73.74 73.74 0 0 0 3.84-13.6zm185.59 86.8v-12q26 0 26-16.8V180q0-54.8-39.2-54.8-40 0-40 48.8v71.6q0 16.8 28.8 16.8v12h-84.8v-12q22.4 0 22.4-18.4V142q0-14-21.6-14h-5.6v-10.4l57.6-14q1.59 1.6 1.6 8v24a64.78 64.78 0 0 1 8.2-11.8 49.8 49.8 0 0 1 12.4-10.2 72 72 0 0 1 17.4-7.2 84.84 84.84 0 0 1 22.8-2.8 53.68 53.68 0 0 1 16.4 3 57.16 57.16 0 0 1 17.6 9.6 53.62 53.62 0 0 1 14 17q5.6 10.41 5.6 25.2v88.4q0 15.6 26 15.6v12zm219.2-40.8a117.71 117.71 0 0 1-6 19 47.2 47.2 0 0 1-9.6 14.8 40.32 40.32 0 0 1-15 9.6q-9 3.39-21.4 3.4-19.6 0-31-9.4t-11.4-30.2v-114h-26l1.6-12q18.39-3.6 29.6-21a118.83 118.83 0 0 0 16-40.2l12.4-1.6v59.2h31.6a54.4 54.4 0 0 0 10.2-.87q4.59-.87 8.2-1.92v18.4h-50V232q0 4.8.4 9.4a26.22 26.22 0 0 0 2.2 8.6 14.1 14.1 0 0 0 5.8 6.4q4 2.4 11.2 2.4a30.85 30.85 0 0 0 20.8-8 33.21 33.21 0 0 0 11.2-20.4zm46 46.8q-27.21 0-27.2-26t27.2-26q25.59 0 25.6 26t-25.6 26z"/>
</svg>
