<svg xmlns="http://www.w3.org/2000/svg" viewBox="0 0 2347.97 300.66"><title>miscreant</title><path d="M239.13,194.53l-22.44-17.76c-3.18,16.52-12.91,26.9-28.68,30.68-12.81,3.07-28.24-3.33-34.28-14.61-8.07-15.08-10.11-30.61,2.57-45.18-3.84-1.12-7.67-2-11.36-3.35-5.06-1.8-9.86-1.95-14.82.5-5.74,2.83-10.06,7-12.33,12.87-6.16,16-6.88,32.05.68,47.89,1,2.19,2.81,4,3.88,6.22.65,1.33.61,3,.87,4.53-1.52-.08-3.38.4-4.5-.31-14.51-9.14-25.45-21.2-29-38.47a76.11,76.11,0,0,1,4-45C79,129.08,64.26,125.62,49.56,122a4.19,4.19,0,0,1-2.39-2.4c-.62-1.7.56-2.5,2.15-3,12.8-4.39,25.89-7.7,39.35-8.84a376.79,376.79,0,0,1,38.71-1.61,166.38,166.38,0,0,1,49.41,8.75,142,142,0,0,1,36.84,18c15.3,10.64,27.92,24,38.79,39a382.78,382.78,0,0,1,21.7,32.69c5.28,9.1,9.12,19.05,13.39,28.72.48,1.09-.45,2.8-.73,4.22-1.37-.5-3.12-.62-4.05-1.55-6.23-6.21-12.29-12.6-18.41-18.92a11.83,11.83,0,0,0-1.09-.88,51.68,51.68,0,0,1-23.89,18.83c-10.78,4.38-21.82,8.16-32.92,11.66-10.9,3.44-22.26,3.85-33.57,3.06-20.62-1.45-39.36-8-55.22-21.66-.68-.59-.78-2.12-.7-3.17,0-.4,1.38-1,2.11-1,7.32.32,14.63.83,21.95,1.12,5.14.2,10.3-.12,15.43.23,8.88.61,17.34-1.68,25.93-3.2,6.7-1.18,13.51-2,20.07-3.73a71.84,71.84,0,0,0,13.81-5.75c7.46-3.77,14.5-8.18,19.42-15.28C236.38,196.15,237.8,195.53,239.13,194.53Zm-65-49.26c-7.22.07-13.47,6-13.41,12.63.09,9.54,6.4,16.49,15,16.44,6.44,0,14-8,14-14.69C189.62,151.89,182.4,145.18,174.14,145.27Z" transform="translate(-47 -50.3)"/><path d="M83.25,259.94a1.88,1.88,0,0,1-.64,0c-1.09-.42-2.17-.87-3.25-1.32a10,10,0,0,1,2.37-1.09,67.18,67.18,0,0,1,8.13-1.05,11.52,11.52,0,0,1,4,1,114.34,114.34,0,0,1,11.42,4.08c3.24,1.5,6.16,3.7,9.4,5.71-3.4-.25-6.58-.39-9.74-.75-2.82-.32-5.6-.92-8.42-1.28a2.14,2.14,0,0,0-1.47.82c-.14.16.17.95.48,1.22,5.9,5.29,11.46,11.06,17.86,15.66a73.11,73.11,0,0,0,16.9,8.67,267.46,267.46,0,0,0,28.17,9c7.33,1.87,15,2.45,22.49,3.61,6.24,1,12.46,2.15,18.73,2.81a95,95,0,0,0,12.09,0c3.3-.08,6.61-.23,9.9-.52a69.72,69.72,0,0,0,7.49-1.11c3.25-.65,6.46-1.48,9.69-2.22s6.69-1.47,10-2.25c3.84-.9,7.68-1.85,11.51-2.81a58,58,0,0,0,6-1.61c4.63-1.7,9.27-3.39,13.72-5.47,1-.44,1.4-2.47,1.64-3.85.64-3.62,1-7.29,1.55-10.94.23-1.7.48-3.39.72-5.09,3.5.74,5.45,2.12,5,5.8-.18,1.39.72,2.93,1.12,4.4a1.87,1.87,0,0,1,.1.65c-.43,4.2-.56,8.37-2.38,12.4s-2.91,8.57-4.35,12.86c-.91,2.71-2,5.37-2.79,8.1-.21.72.52,1.68.39,2.46a39.92,39.92,0,0,1-1.36,5.9c-.88,2.75-2,5.43-3,8.15-.83,2.31-1.61,4.65-2.22,6.42a24.41,24.41,0,0,0-4,.94c-3.11,1.34-6.12,2.89-9.22,4.24a2.1,2.1,0,0,1-1.83-.34,1.84,1.84,0,0,1-.16-1.68,58.74,58.74,0,0,0,5.53-19.17c.59-6.38,1.22-12.75,1.82-19.12a2.77,2.77,0,0,0-.12-.67c-3.22,1.26-6.29,2.74-9.52,3.68q-8.48,2.46-17.13,4.33c-2.72.59-5.6.45-8.39.81-.47.06-.88.93-1.25,1.47-.21.31-.19.81-.44,1-6.62,6.28-11.35,13.94-15.84,21.77-1.59,2.77-3.19,5.54-4.63,8.38-.92,1.81-.42,2.84,1.88,2.76,1.31,0,2.63.48,4,.55,5,.26,10.07.77,15.09.57s9.83-1.12,14.74-1.77a14.26,14.26,0,0,0,3.81-.87,2.13,2.13,0,0,0,.58-2c-6.05-9.36-12.2-18.66-18.31-28a5.73,5.73,0,0,1-.46-1.61c.64,0,1.44-.22,1.87.09a7.59,7.59,0,0,1,1.84,2.13c5.68,8.94,11.3,17.91,17,26.81.35.54,1.59.7,2.4.68a23.16,23.16,0,0,0,3.81-.8c-2.1,2.63-3.79,4-6.61,4.24-3.16.28-6.21,1.66-9.38,2.08-5.51.73-11.08,1.13-16.62,1.61a40.49,40.49,0,0,1-7.82.36,69.41,69.41,0,0,1-10.36-2.12c-6.69-1.81-13.44-3.51-20-5.81a187.64,187.64,0,0,1-20.92-8.61,212,212,0,0,1-23.81-13.39c-8.08-5.41-15.54-11.75-23.17-17.82a82.86,82.86,0,0,1-9-8.11,152.54,152.54,0,0,1-12.31-14.37c-3.08-4.25-5.22-9.17-7.93-13.69-.26-.44-1.64-.29-2.5-.28a22.12,22.12,0,0,1-4,.18,27.33,27.33,0,0,1-6-1.74c-.76-.33-1.15-1.53-1.71-2.34A10.33,10.33,0,0,1,78,261.51c1.8-.32,3.65-.36,5.48-.52Zm140.59,53.9c-2.66-.44-4.87-.93-7.11-1.15-5.34-.53-10.73-.75-16-1.44-6-.79-12-2-18.08-2.88-.32,0-1.23,1.09-1.13,1.51.43,1.89,1.18,3.7,1.72,5.58,2.1,7.32,4.19,14.64,6.2,22a9.88,9.88,0,0,1,0,2.71c-.68-.73-1.72-1.34-2-2.19-3.16-9.65-6.16-19.35-9.35-29-.19-.58-2-1.28-2.41-1-1.08.79-1.75,2.11-2.67,3.14-4.5,5-9.07,10-13.49,15.13a2.44,2.44,0,0,0,.4,2.34,45.78,45.78,0,0,0,6.85,3.57c7.45,3,14.91,6,22.48,8.73,4.93,1.75,10,3,15.11,4.32a2.34,2.34,0,0,0,2-.91c4.55-8,9-16.09,13.5-24.12C221.05,318,222.52,315.91,223.85,313.84ZM131.14,295.1c-.16.35-.7.92-.6,1.37.76,3.69,1.63,7.35,2.47,11,.71,3.1.81,6.36,4.26,8.23,5.51,3,10.89,6.24,16.21,9.56,1.76,1.1,2.86,1.16,4.29-.44,4.87-5.43,9.88-10.74,14.74-16.19a2.28,2.28,0,0,0-.53-2c-2.29-.6-4.68-.78-7-1.4q-13-3.57-25.92-7.36C136.54,297.16,134.07,296.14,131.14,295.1Zm138.2,14.09c-.42,2.7-.8,5.69-1.37,8.65-1.08,5.65-2.28,11.28-3.36,16.94-.1.53.34,1.17.54,1.76.5-.29,1.16-.46,1.48-.88.85-1.14,1.51-2.41,2.31-3.59,2.23-3.26,5.78-5.59,6.57-9.87.72-3.93,1.74-7.8,2.5-11.73a4.58,4.58,0,0,0-.46-2.51c-1-2.28-2.07-4.55-3.25-6.74-.32-.59-1.37-1.4-1.7-1.25-1.17.52-2.9,1.27-3.1,2.21C269,304.32,269.34,306.64,269.34,309.18ZM108.81,285.37c3.1,4.54,5.71,9.08,9,13,3.66,4.34,8,8.15,12,12.14a1.64,1.64,0,0,0,1.46.25c.27-.11.48-.9.39-1.31-.83-3.74-1.54-7.53-2.65-11.19-1.85-6.07-2.93-6.26-7.76-2.07-.44.38-1.25.34-1.88.5a8,8,0,0,1,.3-2c.17-.41.78-.62,1.07-1a3.09,3.09,0,0,0,.59-1.41c0-.16-.61-.44-1-.59a37.52,37.52,0,0,1-4.13-1.72C113.84,288.63,111.51,287.06,108.81,285.37Z" transform="translate(-47 -50.3)"/><path d="M601,340.9V327.59q32,0,32-22.18V224.66q0-49.25-41.5-49.25-36,0-49.5,36.82v86.51q0,28.84,32.5,28.84V340.9h-105V327.59Q500,327.59,500,297V236.2q0-60.78-41.5-60.78-50,0-50,54.13v74.09q0,24,32.5,24V340.9H338.5V327.59q28,0,28-22.18V192.27q0-13.75-34-13.75V167l72-15.53q2,1.78,2,8.87V187q8-13.31,26-24.4T475,151.46a66.71,66.71,0,0,1,19.25,3.11,89,89,0,0,1,19,8.21,66.3,66.3,0,0,1,15,11.76,33.24,33.24,0,0,1,8.25,14.2q9.49-16.86,29.25-27.06A88.73,88.73,0,0,1,607,151.46q30,0,48,16.86t18,47.47v89.62q0,22.19,32.5,22.18V340.9Z" transform="translate(-47 -50.3)"/><path d="M738,340.9V327.59q34.5,0,34.5-27.06V212.24q0-35-30.5-35v-12l72.5-13.75V302.3q0,25.29,38,25.29V340.9Zm52-238.25q-26.51,0-26.5-27.06,0-25.29,28.5-25.29,27,0,27,25.29Q819,102.66,790,102.66Z" transform="translate(-47 -50.3)"/><path d="M1012,210.46q-23-45.69-61-45.7-15.5,0-27,6.68t-11.5,22.23q0,8.9,9.25,15.13a117,117,0,0,0,23,11.56q13.75,5.33,29.75,10.67a192.92,192.92,0,0,1,29.75,12.68,83.94,83.94,0,0,1,23,17.57q9.25,10.23,9.25,25.35a51.67,51.67,0,0,1-5.5,24,54.43,54.43,0,0,1-15.25,18.24,83,83,0,0,1-22.5,12.23,123.25,123.25,0,0,1-26.75,6.45q-25,0-44.5-11.54-11,7.54-30,9.76a287.7,287.7,0,0,1-8-69.21h13.5a143.52,143.52,0,0,0,12,26.84,63.75,63.75,0,0,0,14.5,17.3,48.07,48.07,0,0,0,18,9.09,87.49,87.49,0,0,0,22.5,2.66q41.5,0,41.5-28.84a29.88,29.88,0,0,0-3.25-14.42,27.77,27.77,0,0,0-10-10.2A95.83,95.83,0,0,0,976,271q-10-3.76-23.5-7.76-10.5-3.1-22.5-7.76a121.25,121.25,0,0,1-22.25-11.31,64.83,64.83,0,0,1-17-15.75A34.4,34.4,0,0,1,884,207.36a60.17,60.17,0,0,1,4-22.18,47.06,47.06,0,0,1,12.25-17.75q8.25-7.54,21.25-11.76t31-4.21a90.16,90.16,0,0,1,42,10.65,59.65,59.65,0,0,1,19.5-8.87q9,30.18,9,57.23Z" transform="translate(-47 -50.3)"/><path d="M1245.49,303.63a57.61,57.61,0,0,1-14.5,20.63,85.76,85.76,0,0,1-21.25,14.2,109.15,109.15,0,0,1-24.75,8.21,124.67,124.67,0,0,1-25,2.66q-22,0-39.5-7.32a84,84,0,0,1-29.5-20.19,87,87,0,0,1-18.25-30.17,108.76,108.76,0,0,1-6.25-37.27,115,115,0,0,1,6.75-39.49,91.39,91.39,0,0,1,20.5-32.83q13.75-14.19,34.5-22.4t48.75-8.21a92.78,92.78,0,0,1,23.75,3.11,81,81,0,0,1,21,8.65,46.87,46.87,0,0,1,14.75,13.53A29.92,29.92,0,0,1,1242,194q0,8.88-8.5,15.31a30,30,0,0,1-18.5,6.43q-20.51,0-20.5-20.14a46.38,46.38,0,0,1,.75-5.82,49.21,49.21,0,0,0,.75-8.06q0-8.94-9.25-13a47.79,47.79,0,0,0-19.25-4q-14.51,0-24.75,6.9a57.89,57.89,0,0,0-17,17.79,82.9,82.9,0,0,0-10,24.25,108.68,108.68,0,0,0-3.25,25.8,130.88,130.88,0,0,0,4,33.15,81.43,81.43,0,0,0,12,26.7,56.19,56.19,0,0,0,20.5,17.79q12.49,6.45,30,6.45,33.49,0,53.5-26.62Z" transform="translate(-47 -50.3)"/><path d="M1268,340.9V327.59q32.5,0,32.5-25.29V209.13q0-31.94-34.5-31.94v-12q19-3.55,38.38-6.88t38.12-6.88V194l2.5,1.77q1.49-5.76,6.71-13.31a84.17,84.17,0,0,1,30.09-26.18,42.8,42.8,0,0,1,19.9-4.88q37.79,0,37.8,30.61,0,25.29-23,25.29-20.51,0-20.5-16.42,0-7.09,1.5-10.65h-8.92q-14.86,0-23.78,8.43a55.66,55.66,0,0,0-13.63,20.41,106.46,106.46,0,0,0-6.44,25.07q-1.73,13.09-2.23,22v47.47q0,24,38.5,24V340.9Z" transform="translate(-47 -50.3)"/><path d="M1642,297q-13,24.85-35,38.6t-52,13.75q-25,0-44-7.54t-31.75-20.41A83.75,83.75,0,0,1,1460,290.77a108.7,108.7,0,0,1-6.5-37.71,105.22,105.22,0,0,1,7-38.15,103.86,103.86,0,0,1,19.75-32.39A95,95,0,0,1,1511,159.89q18-8.42,40-8.43a147.47,147.47,0,0,1,28.25,2.88A78.44,78.44,0,0,1,1607,165.65q13,8.43,22.5,24.18t12.5,41.48a30.3,30.3,0,0,1-1.5,9.76h-133q-9.5,0-9.5,6.65a90.08,90.08,0,0,0,5,30.17,78.27,78.27,0,0,0,14,24.84,62.78,62.78,0,0,0,22,16.64,68.46,68.46,0,0,0,29,6q21,0,36.25-10.65A130,130,0,0,0,1631,289.88Zm-68-69.21q20.5,0,20.5-18.63a50,50,0,0,0-12.75-29.5Q1570.49,167,1549,167a47,47,0,0,0-21,4.66,51.11,51.11,0,0,0-16.25,12.42,53.94,53.94,0,0,0-10.25,17.75,61.84,61.84,0,0,0-3.5,20.63q0,5.32,11,5.32Z" transform="translate(-47 -50.3)"/><path d="M1877.48,322.27q-7.5,23.52-40,23.51-28.5,0-36-28.84-36,28.84-76.5,28.84-26.51,0-39-10t-12.5-31.72q0-54.57,124-74.53v-17.3q0-43.48-38.24-43.48-16.61,0-28.68,4.88t-12.08,18.63a10.84,10.84,0,0,1,4.5,5.55,20.84,20.84,0,0,1,1.5,7.76q0,16.87-23,16.86a22.21,22.21,0,0,1-14.5-4.88q-6-4.88-6-15.08t7-19.52a64.76,64.76,0,0,1,18.3-16.19,105.61,105.61,0,0,1,26.09-11.09,110.27,110.27,0,0,1,30.34-4.21q41.63,0,59.19,13.75t17.55,45.7v96.27q0,16.42,17,16.42a28,28,0,0,0,15.5-4.88Zm-78-77.64a235.28,235.28,0,0,0-30.69,4.66,113.23,113.23,0,0,0-26.91,9.32,55.84,55.84,0,0,0-19.12,15.31q-7.29,9.32-7.29,23.07,0,28.84,31.69,28.84,14.09,0,23.39-3.77a41.46,41.46,0,0,0,15.09-10,48.06,48.06,0,0,0,9.05-13.75,74.77,74.77,0,0,0,4.78-15.08Z" transform="translate(-47 -50.3)"/><path d="M2031.48,340.9V327.59q32.5,0,32.5-18.63V236.2q0-60.78-49-60.78-50,0-50,54.13V309q0,18.63,36,18.63V340.9H1895V327.59q28,0,28-20.41V194q0-15.53-27-15.53h-7V167l72-15.53q2,1.78,2,8.87V187a72.29,72.29,0,0,1,10.25-13.09,61.28,61.28,0,0,1,15.5-11.31,96.57,96.57,0,0,1,21.75-8,118.8,118.8,0,0,1,28.5-3.11,78.26,78.26,0,0,1,42.5,14,61.67,61.67,0,0,1,17.5,18.86q7,11.54,7,28v98q0,17.3,32.5,17.3V340.9Z" transform="translate(-47 -50.3)"/><path d="M2305.48,295.65a120.08,120.08,0,0,1-7.5,21.07,52.2,52.2,0,0,1-12,16.42,51.53,51.53,0,0,1-18.75,10.65q-11.25,3.76-26.75,3.77-24.5,0-38.75-10.43t-14.25-33.5V177.19H2155l2-13.31q23-4,37-23.29A123.71,123.71,0,0,0,2214,96l15.5-1.77v65.66H2269a76.49,76.49,0,0,0,12.75-1q5.74-1,10.25-2.14v20.41h-62.5V293.87q0,5.32.5,10.43a26.5,26.5,0,0,0,2.75,9.54,16.48,16.48,0,0,0,7.25,7.1q5,2.66,14,2.66a41.45,41.45,0,0,0,26-8.87,35.93,35.93,0,0,0,14-22.63Z" transform="translate(-47 -50.3)"/><path d="M2363,347.56q-34,0-34-28.84t34-28.84q32,0,32,28.84T2363,347.56Z" transform="translate(-47 -50.3)"/></svg>