<svg xmlns="http://www.w3.org/2000/svg" version="1.2" baseProfile="tiny" viewBox="-157 213.5 210.7 154.3">
  <path fill="none" d="M-81.7 325.2h7.4v14.5h10.4v-1.1l3.8 1.2v-7.3h14.5v-28.9c.7-3.4 3.3-7.1 7.4-7.2h25.1v-1.2l3.8 1.3v-14.7h21.8l-1.2-3.8h1.1v-17.6h-87c-3.9.3-6.3 3.8-6.9 7.1v54h1.1c-.1 0-1.4 3.7-1.3 3.7z"/>
  <path fill="#F9F1AD" d="M41.3 224.2h-57.7v14.2h57.7v-14.2zm-24 3.7c-.3 0-.5 0-.6.1-.1 0-.2.1-.3.2s-.2.4-.3.7l-1.2 4.1c-.1.2-.1.4-.1.6 0 .1 0 .2.1.3s.3.1.6.1h.1v.2h-2.7v-.2h.2c.2 0 .4 0 .5-.1s.2-.1.3-.3c.1-.1.2-.5.3-.9l1.1-3.7-3.7 5.2h-.2l-.6-5.2-1.1 4c-.1.3-.1.6-.1.7 0 .1 0 .2.1.3s.3.1.6.1l-.1.2H8.1l.1-.2h.1c.3 0 .5-.1.7-.2.1-.1.2-.4.3-.7l1.4-4.8c-.1-.1-.2-.2-.3-.2s-.3-.1-.5-.1v-.2h1.6l.6 5.1 3.7-5.1h1.5z"/>
  <path fill="#231F20" d="M12.3 260.4h.3v17.7h-.3v-17.7zm-29-21.8h29V260h.3v-21.4h29v-14.7h-58.3v14.7zm.3-14.4h57.7v14.2h-57.7v-14.2z"/>
  <path fill="#231F20" d="M11.2 278l1.3 3.8h.1l1.2-3.8h-1.4m-.3-45.1l-.6-5.1H9.9v.2c.3 0 .4.1.5.1s.2.1.3.2l-1.4 4.8c-.1.4-.2.6-.3.7-.1.2-.4.2-.7.2h-.1l-.1.2h2l.1-.2c-.3 0-.5-.1-.6-.1-.1-.1-.1-.1-.1-.3 0-.1 0-.3.1-.7l1.1-4 .6 5.2h.2l3.7-5.2-1.1 3.7c-.1.5-.2.8-.3.9l-.3.3c-.1.1-.3.1-.5.1h-.1v.2h2.7v-.2h-.1c-.3 0-.4 0-.6-.1-.1-.1-.1-.2-.1-.3s0-.3.1-.6l1.2-4.1c.1-.3.2-.6.3-.7.1-.1.2-.2.3-.2s.3 0 .6-.1v-.2h-1.5l-3.7 5.3z"/>
  <path fill="#CBE3F0" d="M-16.4 347h57.7v-14.2h-57.7V347zm26.8-8.7c.4-.7.9-1.2 1.5-1.6.7-.4 1.3-.6 2-.6.3 0 .7.1 1 .2.2.1.3.1.4.1h.2c.1 0 .2-.1.3-.3h.2l-.5 2.1h-.2v-.5c0-.2-.1-.4-.1-.5-.1-.1-.1-.3-.3-.4s-.3-.2-.4-.3c-.2-.1-.4-.1-.6-.1-.6 0-1.1.2-1.5.5-.5.4-1 .9-1.3 1.7-.3.6-.4 1.2-.4 1.8 0 .6.2 1.1.5 1.5.4.4.8.6 1.4.6.4 0 .8-.1 1.2-.3.3-.2.7-.5 1-.9h.2c-.3.5-.7 1-1.2 1.2-.4.3-.9.4-1.5.4-.5 0-1-.1-1.4-.3s-.7-.5-.9-.9-.3-.8-.3-1.3c.2-.7.4-1.4.7-2.1z"/>
  <path fill="#231F20" d="M16.1 332.5h-32.7v14.8h58.3v-14.8H16.1v.2-.2zm25.2.3V347h-57.7v-14.2h57.7z"/>
  <path fill="#231F20" d="M11.2 342.6c.4.2.9.3 1.4.3.6 0 1.1-.1 1.5-.4s.8-.7 1.2-1.2h-.2c-.3.4-.6.7-1 .9-.3.2-.7.3-1.2.3-.6 0-1-.2-1.4-.6s-.5-.9-.5-1.5.1-1.2.4-1.8c.3-.7.7-1.3 1.3-1.7.4-.3.9-.5 1.5-.5.2 0 .4 0 .6.1.2.1.3.1.4.3.1.2.2.2.3.4.1.1.1.3.1.5v.5h.2l.5-2.1h-.4l-.3.3h-.2c-.1 0-.2 0-.4-.1-.4-.1-.7-.2-1-.2-.7 0-1.3.2-2 .6s-1.2.9-1.5 1.6c-.4.7-.6 1.3-.6 2 0 .5.1.9.3 1.3.3.4.6.7 1 1z"/>
  <path fill="#CBE3F0" d="M-59.8 347h28.7v-14.2h-28.7V347zm12.5-10.7h2.6v.2c-.3 0-.5.1-.6.2s-.1.2-.1.3c0 .2.1.4.2.7l1.6 3.7 1.5-3.7c.1-.4.2-.6.2-.8 0-.1 0-.2-.1-.3s-.2-.1-.5-.2h-.1v-.2h2v.2c-.2 0-.4.1-.5.2-.2.2-.3.4-.4.7l-2.2 5.4h-.2l-2.4-5.5c-.1-.3-.2-.5-.3-.5-.1-.1-.2-.2-.3-.2-.1-.1-.3-.1-.5-.1l.1-.1zm-3 6.3h.2c.3 0 .5-.1.6-.2s.1-.3.1-.7v-4.1c0-.3 0-.5-.1-.6 0-.1-.1-.1-.2-.2s-.3-.1-.4-.1h-.2v-.2h2.7v.2h-.2c-.3 0-.5.1-.6.2s-.1.3-.1.7v4.1c0 .3 0 .5.1.6 0 .1.1.1.2.2s.3.1.4.1h.2v.2h-2.7v-.2z"/>
  <path fill="#231F20" d="M-74.3 339.7h10.4v.3h-10.4v-.3zm29-7h-.3v-.3h-14.5v7.3h.2l-.2.1v7.4h29.2v-14.8h-14.5l.1.3zm14.2.1V347h-28.7v-14.2h28.7z"/>
  <path fill="#231F20" d="M-60.1 339.8l-3.8-1.3v2.7l3.8-1.3v-.1M-111 260h.3v61.4h-.3V260zm1.5 61.5h-2.6l1.3 3.7m63.1 17.4h-.2c-.2 0-.3 0-.4-.1s-.2-.1-.2-.2-.1-.3-.1-.6v-4.1c0-.4 0-.6.1-.7.1-.2.3-.2.6-.2h.2v-.2h-2.7v.2h.2c.2 0 .3 0 .4.1s.2.1.2.2.1.3.1.6v4.1c0 .4 0 .6-.1.7-.1.2-.3.2-.6.2h-.2v.2h2.7v-.2zm1.1-5.7c.1.1.1.2.3.5l2.4 5.5h.2l2.2-5.4c.1-.3.3-.6.4-.7s.3-.2.5-.2v-.2h-2v.2h.1c.2 0 .4.1.5.2s.1.2.1.3c0 .1-.1.4-.2.8l-1.5 3.7-1.6-3.7c-.1-.3-.2-.6-.2-.7s0-.2.1-.3.3-.1.6-.2v-.2h-2.6v.2c.2 0 .4.1.5.1 0-.1.1 0 .2.1z"/>
  <path fill="#F5D2D0" d="M34.1 310.8v-28.7H-9.1v28.7h43.2zm-10.2-14.4c.3 0 .6.1.8.3.2.2.3.5.3.8 0 .2 0 .4-.1.6-.2.3-.4.7-.7 1.1-.5.6-.8.9-1 1h1.6l.2-.1c.1 0 .1-.1.2-.2h.1l-.3.8h-2.5v-.1c.7-.7 1.2-1.2 1.5-1.6s.4-.8.4-1.1-.1-.5-.2-.6c-.2-.2-.4-.3-.6-.3s-.4.1-.6.2-.3.3-.4.5h-.1c.1-.4.2-.7.4-.9.4-.3.6-.4 1-.4zm-5.3 4c.1-.1.1-.3.2-.5l.7-2.5c.1-.2.1-.3.1-.5l-.1-.2c-.1 0-.2-.1-.3-.1h-.1v-.1h1.6v.1h-.3l-.2.2c0 .1-.1.2-.2.5l-.3 1.1 1.5-1.1c.2-.1.3-.3.4-.3l.1-.1-.1-.1-.2-.1v-.1h1.3v.1c-.1 0-.3.1-.4.1s-.2.1-.3.2c0 0-.2.2-.6.5l-1.3 1 1 1.6c.2.3.3.5.5.5s.3.1.5.1v.1h-1.8v-.1c.1 0 .2 0 .3-.1l.1-.2v-.2s-.1-.1-.2-.3l-.8-1.3-.4 1.4c-.1.2-.1.4-.1.4l.1.2c.1 0 .2.1.4.1v.1h-1.6v-.1h.3l.2-.3zM4.3 299c-.4.3-.9.4-1.5.4-1.1 0-1.9-.4-2.5-1.2-.4-.6-.7-1.3-.7-2.1 0-.6.1-1.2.4-1.8.3-.5.7-.9 1.2-1.2.5-.3 1.1-.4 1.6-.4s.9.1 1.4.3c.1.1.2.1.3.1l.2-.1c.1-.1.1-.2.2-.4h.2l.1 2.2h-.1c-.2-.7-.5-1.1-.8-1.4-.4-.3-.8-.4-1.3-.4-.4 0-.8.1-1.2.3s-.6.6-.8 1c-.2.5-.3 1.1-.3 1.8 0 .6.1 1.1.3 1.5s.5.7.8 1c.4.2.8.3 1.3.3.4 0 .8-.1 1.1-.3.3-.2.7-.5 1-1.1l.1.1c-.2.8-.6 1.2-1 1.4zm7-4.6c0-.3-.1-.5-.1-.6-.1-.2-.2-.3-.4-.4s-.4-.1-.6-.1h-.9v4.9c0 .4 0 .6.1.7s.3.2.6.2h.2v.2H7.6v-.2h.2c.3 0 .5-.1.6-.2s.1-.3.1-.7v-4.9h-.8c-.3 0-.5 0-.6.1-.2.1-.3.2-.4.3-.1.2-.2.4-.2.7h-.2l.1-1.5h5.2l.1 1.5h-.4zm2.6 4.5c.1.1.3.2.5.2h.2v.2h-2.7v-.2h.2c.3 0 .5-.1.6-.3.1-.1.1-.3.1-.7V294c0-.4 0-.7-.1-.7-.1-.1-.3-.2-.5-.2h-.3v-.2h2.3c.7 0 1.2 0 1.5.1s.6.3.8.5c.2.3.3.6.3 1s-.1.7-.4 1-.7.5-1.2.6l1.3 1.8c.3.4.6.7.8.8.2.1.5.2.8.3v.2h-1.7l-2.2-3h-.6v2c.1.4.1.6.3.7z"/>
  <path fill="#F5D2D0" d="M14 296c.6 0 1.1-.1 1.4-.4s.5-.6.5-1-.1-.7-.4-1c-.2-.2-.6-.4-1-.4-.2 0-.4 0-.7.1v2.7h.2z"/>
  <path fill="#231F20" d="M9 281.8H-9.4v14.6h.2l-.2.1v14.6H16v-.3H-9.1v-28.7h43.2v28.7H16.2v.3h18.1v-29.3H12.5"/>
  <path fill="#231F20" d="M4.2 298.8c-.3.2-.7.3-1.1.3-.5 0-.9-.1-1.3-.3-.4-.2-.7-.6-.8-1s-.2-1-.2-1.6c0-.7.1-1.3.3-1.8s.5-.8.8-1 .7-.3 1.2-.3.9.1 1.3.4.6.8.8 1.4h.1l-.1-2.2H5c0 .2-.1.3-.2.4l-.2.1c-.1 0-.2 0-.3-.1-.4-.2-.9-.3-1.4-.3-.6 0-1.1.1-1.6.4s-.9.7-1.2 1.2-.4 1.1-.4 1.8c0 .8.2 1.5.7 2.1.6.8 1.4 1.2 2.5 1.2.6 0 1.1-.1 1.5-.4s.8-.7 1.1-1.2l-.1-.1c-.4.4-.7.8-1.2 1zm1.9-5.9l-.1 1.5h.2c0-.3.1-.5.2-.7s.3-.3.4-.3.3-.1.6-.1h.8v4.9c0 .4 0 .6-.1.7-.1.2-.3.2-.6.2h-.2v.2H10v-.2h-.2c-.2 0-.4-.1-.6-.2-.1-.1-.1-.3-.1-.7v-4.9h.9c.3 0 .5 0 .6.1.2.1.3.2.4.4.1.1.1.3.1.6h.2l-.1-1.5H6.1zm7.7 3.4h.5l2.2 3h1.7v-.2c-.3 0-.6-.1-.8-.3-.2-.1-.5-.4-.8-.8l-1.3-1.8c.5-.1.9-.3 1.2-.6.3-.3.4-.6.4-1s-.1-.7-.3-1-.5-.4-.8-.5-.8-.1-1.5-.1h-2.5v.2h.2c.2 0 .4.1.5.2s.1.3.1.7v4.1c0 .4 0 .6-.1.7-.1.2-.3.3-.6.3h-.1v.2h2.7v-.2h-.2c-.2 0-.4-.1-.5-.2s-.1-.3-.1-.7v-1.9l.1-.1zm-.2-3c.3-.1.6-.1.7-.1.4 0 .7.1 1 .4.2.2.4.6.4 1s-.2.7-.5 1c-.3.3-.8.4-1.4.4h-.3l.1-2.7zm4.4 7.4h1.6v-.1c-.2 0-.4 0-.4-.1l-.1-.2c0-.1 0-.2.1-.4l.4-1.4.8 1.3c.1.2.2.3.2.3v.2l-.1.2c-.1.1-.2.1-.3.1v.1H22v-.1c-.2 0-.4 0-.5-.1l-.5-.5-1-1.6 1.3-1c.4-.3.6-.4.6-.5.1-.1.2-.1.3-.2.1 0 .2-.1.4-.1v-.1h-1.3v.1l.2.1.1.1-.1.1c-.1.1-.2.2-.4.3l-1.5 1.1.3-1.1c.1-.3.1-.4.2-.5l.2-.2h.3v-.1h-1.5v.1c.2 0 .3 0 .3.1l.1.2c0 .1 0 .3-.1.5l-.7 2.5c-.1.3-.1.4-.2.5l-.2.1h-.2l-.1.3zm4.7-3.1c.1-.2.2-.4.4-.5s.3-.2.6-.2c.2 0 .4.1.6.3.2.2.2.4.2.6 0 .3-.1.7-.4 1.1s-.8 1-1.5 1.6v.1h2.5l.3-.8h-.1c-.1.1-.1.2-.2.2l-.2.1h-1.6l1-1c.3-.4.6-.7.7-1.1.1-.2.1-.4.1-.6 0-.3-.1-.5-.3-.8-.2-.2-.5-.3-.8-.3s-.6.1-.8.3c-.2.2-.3.5-.4.9l-.1.1z"/>
  <path fill="#F5D2D0" d="M-97.1 340.3h2.2l-1.1-2.6"/>
  <path fill="#F5D2D0" d="M-117.8 325.5v28.7h43.2v-28.7h-43.2zm8.7 17c-.4.3-.9.4-1.5.4-1.1 0-1.9-.4-2.5-1.2-.4-.6-.7-1.3-.7-2.1 0-.6.1-1.2.4-1.8.3-.5.7-.9 1.2-1.2.5-.3 1.1-.4 1.6-.4s.9.1 1.4.3c.1.1.2.1.3.1l.2-.1c.1-.1.1-.2.2-.4h.2l.1 2.2h-.1c-.2-.7-.5-1.1-.8-1.4-.4-.3-.8-.4-1.3-.4-.4 0-.8.1-1.2.3-.4.2-.6.6-.8 1-.2.5-.3 1.1-.3 1.8 0 .6.1 1.1.3 1.5s.5.7.8 1c.4.2.8.3 1.3.3.4 0 .8-.1 1.1-.3.3-.2.7-.5 1-1.1l.1.1c-.2.7-.7 1.1-1 1.4zm9.8-6h-.2c-.3 0-.5.1-.6.2s-.1.3-.1.7v4.2c0 .4 0 .6.1.7s.3.2.6.2h.2v.2h-2.7v-.2h.2c.3 0 .5-.1.6-.2s.1-.3.1-.7v-4.3l-2.5 5.4h-.2l-2.5-5.4v4.3c0 .4 0 .6.1.7s.3.2.6.2h.2v.2h-2.2v-.2h.2c.3 0 .5-.1.6-.2s.1-.3.1-.7v-4.2c0-.3 0-.5-.1-.6 0-.1-.1-.2-.2-.2-.1-.1-.3-.1-.6-.1v-.2h1.8l2.3 5 2.3-5h1.8l.1.2c-.1 0 0 0 0 0zm7.1 6.2h-2.5v-.2c.3 0 .4-.1.5-.1.1-.1.1-.2.1-.3s-.1-.4-.2-.7l-.4-.9h-2.4l-.4 1c-.1.2-.2.4-.2.6 0 .1 0 .2.1.3.1.1.3.1.6.1v.2h-2v-.2c.3 0 .4-.1.5-.2.2-.2.3-.5.5-.9l2.3-5.3h.2l2.2 5.3c.2.4.3.7.5.8.1.1.4.2.6.2v.3zm5.1-.2c-.4.3-.9.4-1.5.4-1.1 0-1.9-.4-2.5-1.2-.4-.6-.7-1.3-.7-2.1 0-.6.1-1.2.4-1.8.3-.5.7-.9 1.2-1.2.5-.3 1.1-.4 1.6-.4s.9.1 1.4.3c.1.1.2.1.3.1l.2-.1c.1-.1.1-.2.2-.4h.2l.1 2.2h-.1c-.2-.7-.5-1.1-.8-1.4-.4-.3-.8-.4-1.3-.4-.4 0-.8.1-1.2.3-.4.2-.6.6-.8 1-.2.5-.3 1.1-.3 1.8 0 .6.1 1.1.3 1.5s.5.7.8 1c.4.2.8.3 1.3.3.4 0 .8-.1 1.1-.3s.7-.5 1-1.1l.1.1c-.3.7-.7 1.1-1 1.4zm6-2.4c-.1 0-.3.1-.4.1s-.2.1-.3.2c0 0-.2.2-.6.5l-1.3 1 1 1.6c.2.3.3.5.5.5.1.1.3.1.5.1v.1h-1.8v-.1c.1 0 .2 0 .3-.1l.1-.2v-.2s-.1-.1-.2-.3l-.8-1.3-.4 1.4c-.1.2-.1.4-.1.4l.1.2c.1 0 .2.1.4.1v.1h-1.6v-.1h.3l.2-.1c.1-.1.1-.3.2-.5l.7-2.5c.1-.2.1-.3.1-.5l-.1-.2c-.1 0-.2-.1-.3-.1h-.1v-.1h1.6v.1h-.3l-.2.2c0 .1-.1.2-.2.5l-.3 1.1 1.5-1.1c.2-.1.3-.3.4-.3l.1-.1-.1-.1-.2-.1v-.1c-.1 0 1.2-.1 1.3-.1zm2 4h-1.6v-.1c.2 0 .3 0 .4-.1l.1-.1v-3.2l-.1-.1h-.1c-.1 0-.2 0-.3.1v-.1l1-.5h.1v3.9l.1.1s.1 0 .4.1z"/>
  <path fill="#231F20" d="M-74.3 325.2h-7.4v.1-.1h-36.4v29.3h43.8v-29.3zm-.4 14.8v14.2h-43.2v-28.7h43.2V340zm91-29.2H16v17.9h.3v-17.6m-1.5 17.6l1.3 3.8v.1l.1-.1 1.2-3.8H16"/>
  <path fill="#231F20" d="M-93.3 341.5l-2.2-5.3h-.2l-2.3 5.3c-.2.5-.4.8-.5.9s-.3.1-.5.2v.2h2v-.2c-.3 0-.5-.1-.6-.1-.1-.1-.1-.2-.1-.3 0-.1.1-.3.2-.6l.4-1h2.5l.4.9c.1.3.2.5.2.7 0 .1 0 .2-.1.3-.1.1-.3.1-.5.1v.2h2.5v-.2c-.3 0-.5-.1-.6-.2-.3-.2-.4-.5-.6-.9zm-3.7-1.2l1.1-2.6 1.1 2.6H-97zm-6.4 1l-2.3-5h-1.8v.2c.3 0 .5 0 .6.1s.2.1.2.2c.1.1.1.3.1.6v4.2c0 .4 0 .6-.1.7-.1.2-.3.2-.6.2h-.2v.2h2.2v-.2h-.2c-.3 0-.4-.1-.6-.2-.1-.1-.1-.3-.1-.7v-4.3l2.5 5.4h.2l2.5-5.4v4.3c0 .4 0 .6-.1.7-.1.2-.3.2-.6.2h-.2v.2h2.7v-.2h-.2c-.3 0-.4-.1-.6-.2-.1-.1-.1-.3-.1-.7v-4.2c0-.4 0-.6.1-.7.1-.2.3-.2.6-.2h.2v-.2h-1.9s-2.4 5-2.3 5zm-5.8.9c-.3.2-.7.3-1.1.3-.5 0-.9-.1-1.3-.3s-.7-.6-.8-1c-.2-.4-.3-.9-.3-1.5 0-.7.1-1.3.3-1.8s.5-.8.8-1 .7-.3 1.2-.3.9.1 1.3.4.6.8.8 1.4h.1l-.1-2.2h-.2c0 .2-.1.3-.2.4l-.2.1c-.1 0-.2 0-.3-.1-.4-.2-.9-.3-1.4-.3-.6 0-1.1.1-1.6.4s-.9.7-1.2 1.2-.4 1.1-.4 1.8c0 .8.2 1.5.7 2.1.6.8 1.4 1.2 2.5 1.2.6 0 1.1-.1 1.5-.4s.8-.7 1.1-1.2l-.1-.1c-.4.4-.8.7-1.1.9zm22 0c-.3.2-.7.3-1.1.3-.5 0-.9-.1-1.3-.3-.4-.2-.7-.6-.8-1-.2-.4-.3-.9-.3-1.5 0-.7.1-1.3.3-1.8s.5-.8.8-1 .7-.3 1.2-.3.9.1 1.3.4.6.8.8 1.4h.2l-.1-2.2h-.2c0 .2-.1.3-.2.4l-.2.1c-.1 0-.2 0-.3-.1-.4-.2-.9-.3-1.4-.3-.6 0-1.1.1-1.6.4s-.9.7-1.2 1.2c-.3.5-.4 1.1-.4 1.8 0 .8.2 1.5.7 2.1.6.8 1.4 1.2 2.5 1.2.6 0 1.1-.1 1.5-.4s.8-.7 1.1-1.2l-.1-.1c-.5.4-.9.7-1.2.9zm4.8-2.1l.2.1.1.1-.1.1c-.1.1-.2.2-.4.3l-1.5 1.1.3-1.1c.1-.3.1-.4.2-.5l.2-.2h.3v-.1h-1.6v.1h.1c.2 0 .3 0 .3.1l.1.2c0 .1 0 .3-.1.5l-.7 2.5c-.1.3-.1.4-.2.5l-.2.1h-.3v.1h1.6v-.1c-.2 0-.4 0-.4-.1l-.1-.2c0-.1 0-.2.1-.4l.4-1.4.8 1.3c.1.2.2.3.2.3v.2l-.1.2c-.1.1-.2.1-.3.1v.1h1.8v-.1c-.2 0-.4 0-.5-.1l-.5-.5-1-1.6 1.3-1c.4-.3.6-.4.6-.5.1-.1.2-.1.3-.2.1 0 .2-.1.4-.1v-.1h-1.3v.3zm2.8 3.7v-3.9h-.1l-1 .5v.1c.1-.1.2-.1.3-.1h.1l.1.1v3.2l-.1.1c-.1 0-.2 0-.4.1v.1h1.6v-.1c-.2 0-.3 0-.5-.1zm-2.2-18.6l1.4-3.7H-83m44.9-25.2h24.8v.3h-24.8zm24.9-1.2v2.6l3.8-1.2.2-.1h-.2m-65.1-36.3c-4.1.2-6.7 3.9-7.4 7.2v54.1h.3v-54c.6-3.3 3.1-6.8 6.9-7.1h87.3v-.3l-86.9.1h-.2zm28.7 43.3v29.2h.3v-29c.6-3.3 3.1-6.8 6.9-7.1h.4v-.3h-.2c-4 .2-6.6 3.9-7.4 7.2z"/>
  <path fill="#FAE1B9" d="M-88.8 238.3h28.7v-14.2h-28.7v14.2zm17-4.9c.2-.3.4-.4.6-.6.1-.1.2-.1.3-.1.1 0 .2 0 .3.1.1.1.1.1.1.3 0 .1 0 .2-.1.4l-.3.7c.3-.6.6-1.1.9-1.3.2-.1.3-.2.5-.2.1 0 .2 0 .2.1.1.1.1.2.1.3s0 .2-.1.4l-.3 1.2c-.1.3-.1.4-.1.4v.1l.1-.1c.1-.1.2-.2.3-.4l.1.1c.1.1.1.3-.1.4l-.3.3c-.1.1-.2.1-.3.1l-.2-.1v-.2c0-.1 0-.3.1-.6l.3-1c.1-.2.1-.4.1-.4v-.2h-.1c-.1 0-.2 0-.3.1-.3.3-.5.6-.8 1.1-.2.3-.3.7-.5 1.2h-.6l.5-1.9c.2-.2.2-.3.2-.4v-.1h-.1l-.2.1c-.1.1-.3.2-.5.5s-.3.5-.4.8c-.1.1-.2.5-.4 1.1h-.5l.6-2 .1-.3v-.1l-.1-.1-.2-.1h-.2v-.1l1.1-.2-.4 1.4c.2-.3.3-.6.6-.7zm-8.6.5c.2 0 .4 0 .5-.1s.2-.1.3-.2c.1-.1.2-.4.3-.8l1.1-3.9c.1-.3.1-.6.1-.7v-.1l-.2-.1h-.5l.1-.2h2.5l-.1.2c-.2 0-.4 0-.5.1s-.3.1-.3.2c-.1.1-.2.4-.3.8l-.5 1.6h3l.5-1.6c.1-.3.1-.5.1-.7l-.1-.2-.2-.1h-.5v-.2h2.6l-.1.2c-.2 0-.4 0-.5.1-.2.1-.3.2-.3.3-.1.1-.2.4-.3.8l-1.1 3.9c-.1.3-.1.5-.1.7 0 .1 0 .2.1.3s.3.1.6.1l-.1.2h-2.5l.1-.2c.2 0 .4 0 .5-.1s.2-.1.3-.2c.1-.1.2-.4.3-.8l.6-2h-3l-.6 2c-.1.3-.1.5-.1.7 0 .1 0 .2.1.3s.3.1.6.1v.2h-2.5l.1-.6z"/>
  <path fill="#231F20" d="M-59.8 223.8h-29.3v14.8h29.3v-14.8zm-.3 14.5h-28.7v-14.2h28.7v14.2z"/>
  <path fill="#231F20" d="M-78 233.9c-.3 0-.5-.1-.6-.1-.1-.1-.1-.2-.1-.3s0-.4.1-.7l.6-2h3l-.6 2c-.1.4-.2.7-.3.8-.1.1-.1.2-.3.2-.1 0-.2.1-.5.1l-.1.2h2.5l.1-.2c-.3 0-.5-.1-.6-.1-.1-.1-.1-.2-.1-.3s0-.4.1-.7l1.1-3.9c.1-.4.2-.6.3-.8l.3-.3c.1 0 .3-.1.5-.1l.1-.2h-2.6v.2h.5l.2.1.1.2c0 .2 0 .4-.1.7l-.5 1.6h-3l.5-1.6c.1-.4.2-.6.3-.8.1-.1.2-.2.3-.2.1 0 .3-.1.5-.1l.1-.2h-2.5l-.1.2h.5l.2.1.1.2c0 .2 0 .4-.1.7l-1.1 3.9c-.1.4-.2.7-.3.8-.1.1-.2.2-.3.2-.1 0-.2.1-.5.1l-.1.2 2.4.1zm4.9-1v.1h.2l.2.1.1.1v.1l-.1.3-.6 2h.5c.2-.6.3-1 .4-1.1.1-.2.3-.5.4-.8.2-.3.4-.4.5-.5l.2-.1h.1v.1c0 .1 0 .2-.1.4l-.5 1.9h.5c.1-.5.3-.9.5-1.2.2-.5.5-.8.8-1.1.1-.1.2-.1.3-.1h.1v.2s0 .1-.1.4l-.3 1c-.2.3-.2.5-.2.6l.1.2.2.1c.1 0 .2 0 .3-.1.1-.1.2-.1.3-.3.1-.1.2-.3.3-.3l-.2-.1c-.1.1-.2.3-.3.4h-.1v-.1s0-.2.1-.4l.3-1.2c0-.1.1-.3.1-.4 0-.1 0-.2-.1-.3s-.1-.1-.2-.1c-.2 0-.3.1-.5.2-.3.3-.6.7-.9 1.3l.2-.8c0-.2.1-.3.1-.4 0-.1 0-.2-.1-.3s-.2-.1-.3-.1c-.1 0-.2 0-.3.1-.2.1-.4.3-.6.6-.1.2-.3.4-.5.7l.4-1.4-1.2.3z"/>
  <path fill="#FAE1B9" d="M-146.8 224.1h28.7v14.2h-28.7v-14.2z"/>
  <path fill="#231F20" d="M-96.5 260h.3v61.9h-.3V260zm-21.3-21.4v-14.8h-29.3v14.8h14.5v7.1c0 1.9.8 3.9 2.2 5.3 1.4 1.4 3.3 2.2 5.2 2.1h7.2c3.9 0 7.1 3.2 7.1 7.1v.2h.3v-.2c0-4-3.2-7.3-7.2-7.4h-7.5c-1.7 0-3.5-.7-4.8-2-1.4-1.4-2.2-3.2-2.1-5.1v-7.1h14.4zm-29-14.5h28.7v14.2h-28.7v-14.2z"/>
  <path fill="#231F20" d="M-128.7 235.2v-.4l-.1-3.5-1 .5v.1c.1-.1.2-.1.3-.1h.1l.1.1v3.2l-.1.1c-.1 0-.2 0-.4.1v.1h1.6v-.1c-.2 0-.3 0-.5-.1zm-3.8-7.6v.2h.5l.2.1.1.2c0 .2 0 .4-.1.7l-.5 1.6h-3l.5-1.6c.1-.4.2-.6.3-.8.1-.1.2-.2.3-.2.1 0 .3-.1.5-.1l.1-.2h-2.6v.4h.5l.2.1.1.2c0 .2 0 .4-.1.7l-1.2 4c-.1.4-.2.7-.3.8-.1.1-.2.2-.3.2-.1 0-.2.1-.5.1l-.1.2h2.5v-.2c-.3 0-.5-.1-.6-.1-.1-.1-.1-.2-.1-.3 0-.1 0-.4.1-.7l.6-2h3l-.6 2c-.1.4-.2.7-.3.8-.1.1-.1.2-.3.2-.1 0-.2.1-.5.1l-.1.2h2.5l.1-.2c-.3 0-.5-.1-.6-.1-.1-.1-.1-.2-.1-.3 0-.1 0-.4.1-.7l1.1-3.9c.1-.4.2-.6.3-.8l.3-.3c.1 0 .3-.1.5-.1l.1-.2h-2.6zm57.9 18.2c0 1.8-.8 3.6-2.1 4.9s-3 2-4.8 2h-7.6c-4 .1-7.2 3.4-7.2 7.4v.2h.3v-.2c0-3.9 3.2-7.1 7.1-7.1h7.3c1.9 0 3.8-.7 5.2-2.1 1.3-1.3 2.1-3.2 2.1-5.1v-7.5h-.3v7.5zm-21.6 79.6l1.3-3.9h-2.6m16.9 14.4c-.2 0-.3-.1-.4-.1.1-.1.3-.1.5-.1 0-.2.3-.2.4-.3l.1-.2-.1-.2-.2-.1-.2.1c-.1 0-.2.2-.4.3-.1.1-.2.2-.4.3 0-.2.1-.3.1-.5.1-.2.1-.3.1-.4 0-.1 0-.2-.1-.3l-.2-.1-.2.1c-.1.1-.1.2-.1.3s0 .2.1.5c.1.2.1.3.1.5-.1-.1-.3-.2-.4-.3l-.3-.3-.2-.1-.2.1-.1.2c0 .1.1.2.2.3.1 0 .2.1.5.2.2 0 .3.1.5.1-.1.1-.3.1-.4.1-.2 0-.4.1-.4.1-.1 0-.2.1-.2.2l-.1.2.1.2.2.1.2-.1.4-.4c.1-.1.2-.2.4-.3v.3s0 .2-.1.3c-.1.2-.1.3-.1.4 0 .1 0 .2.1.2l.2.1.2-.1c.1-.1.1-.1.1-.2s0-.3-.1-.6c0-.2-.1-.3-.1-.4.1.1.3.2.4.3.1.2.3.3.3.3l.2.1.2-.1.1-.2c0-.1 0-.2-.1-.3-.1-.1-.3-.1-.6-.2z"/>
</svg>
