<svg xmlns="http://www.w3.org/2000/svg" version="1.2" baseProfile="tiny" viewBox="0 0 504.5 152">
  <path fill="none" d="M375 78.6c0-.9-.1-2.9-1.1-2.9s-1.1 2-1.1 2.9c0 .9.1 2.9 1.1 2.9s1.1-2 1.1-2.9zM259.9 44.7c0 .1-.1.3-.3.3H250c-.1 0-.3-.1-.3-.3v-4.6h-28.5v6c.6 0 1.1-.2 1.6-.4l-1.8 3.5h28.6c.1 0 .3.1.3.3v43.4c0 .1-.1.3-.3.3h-28.4v9.1h28.5v-4.6c0-.1 0-.2.1-.2s.1-.1.2 0l9.7 2.4c.1 0 .2.1.2.3v2.2h9.1V62.1c-1.6-.1-2.8-1.4-2.8-2.9s1.2-2.8 2.8-2.9V40.1h-9.1v4.6z"/>
  <path fill="#FFF" d="M365.6 61.6v-2.2h-2.2c.2 1.2 1.1 2.1 2.2 2.2zm2.7-2.2h-2.2v2.2c1.2-.1 2.1-1 2.2-2.2zm-4.9-.5h2.2v-2.2c-1.1.2-2 1.1-2.2 2.2zm2.7-2.2v2.2h2.2c-.1-1.2-1-2-2.2-2.2z"/>
  <path fill="#010101" d="M366.1 56.7c1.2.1 2.1 1 2.2 2.2h.5c-.1-1.4-1.3-2.6-2.7-2.7v.5zm2.2 2.7c-.1 1.2-1 2-2.2 2.2v.5c1.5-.1 2.6-1.2 2.7-2.7h-.5zm-2.7 2.2c-1.1-.1-2-1-2.2-2.2-.1 0-.3-.1-.3-.3s.1-.3.3-.3c.1-1.1 1-2 2.2-2.2v-.5c-1.5.1-2.7 1.4-2.7 2.9s1.2 2.8 2.7 2.9v-.3z"/>
  <path fill="#FFF" d="M266.9 59.4c.1 1.2 1 2.1 2.2 2.2v-2.2h-2.2zm2.7-2.7v2.2h2.2c-.2-1.1-1.1-2-2.2-2.2zm-2.7 2.2h2.2v-2.2c-1.2.2-2.1 1.1-2.2 2.2zm4.8.5h-2.2v2.2c1.2-.1 2.1-1 2.2-2.2z"/>
  <path fill="#010101" d="M266.3 59.2c0 1.6 1.2 2.8 2.8 2.9v-.5c-1.2-.1-2.1-1-2.2-2.2-.1 0-.2-.1-.2-.2s.1-.2.2-.2c.1-1.2 1-2.1 2.2-2.2v-.5c-1.6 0-2.8 1.3-2.8 2.9zm3.3-2.5c1.1.1 2 1 2.2 2.2h.5c-.1-1.4-1.3-2.6-2.7-2.7v.5zm2.1 2.7c-.1 1.1-1 2-2.2 2.2v.5c1.4-.1 2.6-1.3 2.7-2.7h-.5z"/>
  <path fill="#FAD7BB" d="M95.8 92.7h57.4V49.8H95.8v42.9zm29.8-16.1c.4 0 .5-.1.8-1l1-3.1c.3-.8.3-.9-.1-1h-.2c-.1-.1 0-.2.1-.2h1.9c.1 0 .1.2 0 .2h-.2c-.5.1-.5.2-.8 1l-.4 1.1c-.1.2-.1.2.2.2.1 0 .2 0 .4-.1s.5-.4.9-.7l.8-.8c.5-.4.5-.6.5-.6 0-.1-.1-.1-.2-.1h-.2v-.2h1.8v.2h-.2c-.2 0-.4.1-.6.2-.2.1-.7.4-1.5 1.1l-1.1 1c-.1.1-.2.1-.1.3l.9 1.9c.2.5.4.6.8.7h.2v.2h-1.9v-.2h.2c.3 0 .3-.1.1-.5l-.9-1.7c-.2-.3-.3-.4-.3-.4-.2 0-.2.1-.3.2l-.4 1.3c-.2.8-.3 1 .2 1h.2v.2h-2v-.2h.4zm-9-1.8l.6-.1c.6-.1.7-.2.7-1.4v-4.8c0-1.2-.1-1.2-.7-1.4l-.3-.1c-.1-.1-.1-.4 0-.5h6.3c0 .2.1 1.1.2 2-.1.1-.3.2-.5.1-.1-.5-.3-.8-.5-1-.2-.2-.6-.4-1.3-.4h-1c-.4 0-.4 0-.4.5V70c0 .4 0 .4.4.4h.9c.7 0 .8-.1 1-.7l.1-.3c.1-.1.4-.1.5 0v2.8c-.1.1-.4.1-.5 0l-.1-.3c-.1-.6-.3-.7-1-.7h-1c-.3 0-.4 0-.4.4v1.5c0 .6.1 1 .2 1.2.2.2.4.3 1.4.3 1.1 0 1.6 0 2.3-1.5.1-.1.4-.1.5.1-.1.7-.4 1.7-.5 2.1h-6.9c-.1-.1-.1-.4 0-.5z"/>
  <path fill="#010101" d="M95.2 83.4v9.5c0 .1.1.3.3.3h57.9c.1 0 .3-.1.3-.3V49.5c0-.1-.1-.3-.3-.3h-28.9l-.1.3-.1-.3H95.5c-.1 0-.3.1-.3.3V59l.3.1-.3.1V83l.3.1-.3.3zm58-33.6v42.9H95.8V49.8h57.4z"/>
  <path fill="#010101" d="M118.8 75.2h4.7c.2-.3.5-1.4.5-2.1-.1-.2-.4-.2-.5-.1-.7 1.5-1.1 1.5-2.3 1.5-.9 0-1.2-.1-1.4-.3-.2-.2-.2-.6-.2-1.2v-1.5c0-.4 0-.4.4-.4h.9c.7 0 .8.1 1 .7l.1.3c.1.1.4.1.5 0v-2.8c-.1-.1-.4-.1-.5 0l-.1.3c-.1.6-.3.7-1 .7h-.9c-.3 0-.4 0-.4-.4v-2.3c0-.5 0-.5.4-.5h1c.6 0 1 .2 1.3.4.2.2.3.6.5 1 .1.1.4.1.5-.1-.1-.9-.2-1.8-.2-2h-6.3c-.1.1-.1.4 0 .5l.3.1c.6.1.7.2.7 1.4v4.8c0 1.2-.1 1.3-.7 1.4l-.6.1c-.1.1-.1.4 0 .5h2.3zm7.5 1.6h1v-.2h-.2c-.4 0-.4-.2-.2-1l.4-1.3c.1-.2.1-.2.3-.2.1 0 .2 0 .3.4l.9 1.7c.2.3.2.4-.1.5h-.2v.2h1.9v-.2h-.2c-.4-.1-.5-.2-.8-.7l-.9-1.9c-.1-.2-.1-.2.1-.3l1.1-1c.8-.8 1.3-1 1.5-1.1.2-.1.4-.1.6-.2h.2v-.2h-1.8v.2h.2c.1 0 .2.1.2.1 0 .1-.1.2-.5.6l-1.1.8c-.4.3-.7.6-.9.7-.1.1-.2.1-.4.1s-.2-.1-.2-.2l.4-1.1c.3-.8.3-.9.8-1h.2c.1 0 .1-.2 0-.2H127c-.1 0-.1.1-.1.2h.2c.4.1.4.2.1 1l-1 3.1c-.3.9-.4 1-.8 1h-.3v.2h1.2zM92.1 58.9H76.4v.5h15.7v-.5z"/>
  <path fill="#010101" d="M95.2 59l-3.5-1.8c.3.5.4 1.1.4 1.6v.5c0 .6-.2 1.1-.4 1.6l3.5-1.8.3-.1h-.3zm-3.1 24.5V83H76.4v.5h15.7z"/>
  <path fill="#010101" d="M92.1 83.5c0 .6-.2 1.1-.4 1.6l3.5-1.8.3-.1-.3-.1-3.5-1.8c.2.5.4 1.1.4 1.6v.6z"/>
  <path fill="#D7E3BF" d="M75.9 49.8H57.1v18.8h18.8V49.8zm-4.9 6c-.2 0-.4.1-.5.2-.1.1-.5 1-.8 1.9l-.7 2.2c-.3 1-.4 1.3-.6 1.9l-.3.1c-.1-.4-.2-.8-.9-2.3l-.8-1.9c-.3-.6-.5-1.3-.6-1.6l-.3.9-.8 2.5c-.2.7-.4 1.4-.4 1.6-.1.3.1.4.5.4h.2v.2h-2.1v-.2h.2c.1 0 .3-.1.5-.2s.4-.6.7-1.8l.8-2.5c.2-.6.3-1 .3-1.1 0-.1-.1-.2-.3-.2l-.4-.1c-.1-.1 0-.2 0-.2h1.6v.1c0 .1.1.5.5 1.4l1 2.4c.2.5.4.9.5 1.1.1 0 .1-.1.2-.3l.8-2.4c.3-.9.5-1.6.5-1.8 0-.2 0-.2-.2-.3l-.4-.1.1-.2h2v.2l-.3.1z"/>
  <path fill="#010101" d="M76.4 49.5c0-.1-.1-.3-.3-.3H56.8c-.1 0-.3.1-.3.3v19.3c0 .1.1.3.3.3h19.3c.1 0 .3-.1.3-.3V49.5zm-19.3.3h18.8v18.8H57.1V49.8z"/>
  <path fill="#010101" d="M70.2 55.5h-1.1l-.1.2.4.1c.2 0 .2.1.2.3 0 .2-.2.9-.5 1.8l-.8 2.4c0 .2-.1.3-.2.3-.1-.2-.3-.6-.5-1.1l-1-2.4c-.4-.9-.5-1.3-.5-1.4v-.1h-1.6c-.1 0-.1.2 0 .2l.4.1c.2 0 .3.1.3.2 0 .2-.1.6-.3 1.1l-.8 2.5c-.4 1.2-.6 1.7-.7 1.8-.1.1-.4.2-.5.2h-.2v.2h2.1v-.2h-.2c-.3 0-.6-.1-.5-.4 0-.2.2-.9.4-1.6l.8-2.5c.2-.5.3-.9.3-.9.2.3.4 1 .6 1.6l.8 1.9c.6 1.5.8 1.9.9 2.3l.3-.1c.2-.6.3-.9.6-1.9l.7-2.2c.3-.9.7-1.8.8-1.9.1-.1.3-.1.5-.2h.2v-.2c-.1-.1-.4-.1-.8-.1z"/>
  <path fill="#D7E3BF" d="M51.2 83.1h1.2c.2 0 .2 0 .2-.2l.2-2.1v-.3s-.1.1-.4.5L51 83c-.1.1 0 .1.2.1z"/>
  <path fill="#D7E3BF" d="M75.9 92.7V73.9H28.2v18.8h47.7zm-28.1-6.9h.3c.3 0 .5-.2.7-.4.3-.3.8-1.1 1.6-2.2l1.7-2.4c.4-.6.5-.8.6-1 .3 0 .7-.3.7-.3l.1.1c0 .2 0 .6-.1 1.4l-.2 3.7c-.1 1.1 0 1.1.5 1.1h.3v.2h-2.2c-.1 0-.1-.2 0-.2h.3c.2 0 .3-.1.4-.2 0 0 .1-.2.1-.6l.1-1.3c0-.2 0-.3-.2-.3h-1.4c-.3 0-.3 0-.5.3l-.8 1.1c-.3.5-.4.7-.4.7 0 .1 0 .1.2.1l.4.1v.2h-2.1l-.1-.1z"/>
  <path fill="#010101" d="M76.2 73.3H27.9c.1 0 .3.1.3.3v.3h47.7v18.8H28.2v.3c0 .1-.1.3-.3.3h48.3c.1 0 .3-.1.3-.3V73.6c-.1-.1-.2-.3-.3-.3z"/>
  <path fill="#010101" d="M49.9 86.1v-.2l-.4-.1c-.2 0-.2-.1-.2-.1s.1-.2.4-.7l.8-1.1c.2-.3.2-.3.5-.3h1.4c.2 0 .2 0 .2.3l-.2 1.1c0 .4-.1.6-.1.6 0 .1-.2.1-.4.2h-.3c-.1 0-.1.2 0 .2h2.2v-.2h-.3c-.5-.1-.5-.1-.5-1.1l.2-3.7c0-.8.1-1.3.1-1.4l-.1-.1s-.4.3-.7.3c0 .2-.2.4-.6 1l-1.7 2.4c-.8 1.1-1.3 1.8-1.6 2.2-.2.2-.4.4-.7.4h-.3v.2h1.1c.6 0 .9 0 1.2.1zM51 83l1.3-1.9c.3-.4.3-.5.4-.5v.3l-.2 2.1c0 .2 0 .2-.2.2h-1.2c-.1-.1-.2-.1-.1-.2z"/>
  <path fill="#D8D9D8" d="M27.6 73.9H8.8v18.8h18.8V73.9zM17 87.3h-2.3v-.2h.4c.4 0 .4-.2.4-.9v-3.3c0-.7 0-.9-.5-.9h-.5v-.2c.8-.1 1.3-.4 1.6-.6h.1v4.9c0 .7 0 .9.4.9h.4v.3zm3.8-4c-.1 0-.2-.1-.2-.2s0-.1.2-.6c.2-.4.5-1.2.7-1.7.1-.2.2-.4.2-.6 0-.1 0-.2-.1-.2-.2 0-.7.4-1.2 1-.4.6-.8 1.2-1.3 2.1l-.2.1c-.1 0-.3 0-.2-.2 0-.1.9-2.5 1-2.7v-.2c-.2 0-.5.2-.8.4l-.1-.1c.3-.4.8-.8 1.3-.8.2 0 .3.2.2.3l-.6 1.5c.6-.9 1.4-1.8 2.1-1.8.3 0 .5.2.5.5 0 .1-.1.4-.1.6-.2.4-.8 1.8-.8 1.9v.2c.1 0 .5-.3.8-.6.1 0 .1.1.1.1-.3.6-1 1-1.5 1z"/>
  <path fill="#010101" d="M28.2 92.9V73.6c0-.1-.1-.3-.3-.3H8.6c-.1 0-.3.1-.3.3v19.3c0 .1.1.3.3.3h19.3c.1 0 .3-.1.3-.3zm-19.4-19h18.8v18.8H8.8V73.9z"/>
  <path fill="#010101" d="M16.2 86.1v-4.9h-.1c-.3.2-.8.4-1.6.6v.2h.5c.4 0 .5.3.5.9v3.3c0 .7 0 .9-.4.9h-.4v.2H17v-.2h-.4c-.4-.1-.4-.3-.4-1zm5.9-3.8c-.2.3-.7.6-.8.6v-.2c0-.1.6-1.4.8-1.9.1-.2.1-.5.1-.6 0-.3-.1-.5-.5-.5-.6 0-1.5.9-2.1 1.8l.6-1.5c.1-.2 0-.3-.2-.3-.4 0-.9.3-1.3.8l.1.1c.3-.2.6-.4.8-.4.1 0 .1.1 0 .2 0 .1-.9 2.6-1 2.7-.1.2.2.2.2.2l.2-.1c.5-.9.8-1.6 1.3-2.1.5-.6 1-1 1.2-1 .1 0 .1.1.1.2 0 .2-.1.5-.2.6-.2.4-.5 1.3-.7 1.7-.2.4-.2.5-.2.6 0 .1.1.2.2.2.5 0 1.1-.4 1.5-.9.1-.2.1-.2-.1-.2z"/>
  <path fill="#D7E3BF" d="M249.4 11.2H192V30h57.4V11.2zm-25.9 7.2h-.2c-.3.1-.5.1-.6.2-.1.2-.2.5-.4 1.2l-.8 3c-.2.7-.3 1.1-.3 1.2 0 .2.1.2.4.3h.3v.2h-2.4v-.2h.3c.2 0 .4-.1.5-.2.1-.1.3-.6.5-1.2l.8-2.5c.2-.5.3-.9.4-1.2-.1.2-.4.5-.9 1.2l-1.5 1.9c-.6.7-1.1 1.4-1.5 2.2h-.2c0-.3 0-.9-.2-2l-.3-3.2c-.2.3-.3.8-.4 1.1l-.7 2c-.5 1.2-.6 1.6-.6 1.8 0 .1 0 .2.3.2l.4.1v.2h-2.1v-.2h.3c.2 0 .4-.1.6-.3.2-.2.6-1.2 1.2-2.8l.5-1.3c.3-.8.4-1.1.4-1.3 0-.1-.1-.2-.3-.2l-.5-.1v-.2h1.7c-.1.5-.1 1.1 0 1.9l.2 1.2c.1.8.2 1.3.2 1.8.4-.5.7-.9 1.1-1.4l1.5-2c.7-.9.9-1.3.9-1.5h1.6v.1zm3.1 7.7h-2v-.2h.3c.4 0 .4-.2.4-.8v-2.9c0-.6 0-.8-.4-.8h-.4v-.2c.7-.1 1.2-.3 1.4-.5h.1v4.4c0 .7 0 .8.4.8h.4l-.2.2z"/>
  <path fill="#010101" d="M221 29.9h-29V11.2h57.4V30H221c.1 0 .3.1.3.3v.3h28.4c.1 0 .3-.1.3-.3V10.9c0-.1-.1-.3-.3-.3h-57.9c-.1 0-.3.1-.3.3v19.3c0 .1.1.3.3.3h29v-.3c-.1-.2.1-.3.2-.3z"/>
  <path fill="#010101" d="M221.9 18.1c0 .2-.2.6-.9 1.5l-1.5 2c-.4.5-.7 1-1.1 1.4 0-.4-.1-.9-.2-1.8L218 20c-.1-.8-.2-1.4 0-1.9h-1.7v.2l.5.1c.2 0 .3.1.3.2 0 .2-.1.5-.4 1.3l-.5 1.3c-.6 1.6-1 2.6-1.2 2.8-.1.2-.3.2-.6.3h-.3v.2h2.1v-.2l-.4-.1c-.2 0-.3-.1-.3-.2 0-.2.1-.6.6-1.8l.7-2c.1-.4.3-.8.4-1.1l.3 3.2c.1 1.1.2 1.6.2 2h.2c.4-.7 1-1.5 1.5-2.2l1.5-1.9c.5-.7.8-1 .9-1.2-.1.3-.2.7-.4 1.2l-.8 2.5c-.2.6-.4 1.1-.5 1.2-.1.1-.4.2-.5.2h-.3v.2h2.4v-.2h-.3c-.3 0-.4-.1-.4-.3 0-.2.1-.5.3-1.2l.8-3c.2-.7.3-1 .4-1.2.1-.1.2-.2.6-.2h.2V18h-1c0 .1-.2.1-.4.1zm4 7v-4.4h-.1c-.2.1-.7.4-1.4.5v.2h.4c.4 0 .4.2.4.8v2.9c0 .7 0 .8-.4.8h-.3v.2h2v-.2h-.4c-.2 0-.2-.2-.2-.8z"/>
  <path fill="#FAD7BB" d="M249.4 49.8H192v42.9h57.4V49.8zM220 75.2h-6.9c-.1-.1-.1-.4 0-.5l.6-.1c.6-.1.7-.2.7-1.4v-4.8c0-1.2-.1-1.2-.7-1.4l-.3-.1c-.1-.1-.1-.4 0-.5h6.3c0 .2.1 1.1.2 2-.1.1-.3.2-.5.1-.1-.5-.3-.8-.5-1-.2-.2-.6-.4-1.3-.4h-1c-.4 0-.4 0-.4.5V70c0 .4 0 .4.4.4h.9c.7 0 .8-.1 1-.7l.1-.3c.1-.1.4-.1.5 0v2.8c-.1.1-.4.1-.5 0l-.1-.3c-.1-.6-.3-.7-1-.7h-.9c-.3 0-.4 0-.4.4v1.5c0 .6.1 1 .2 1.2.2.2.4.3 1.4.3 1.1 0 1.6 0 2.3-1.5.1-.1.4-.1.5.1-.1.6-.4 1.7-.6 2zm8-3.8h-.2c-.2 0-.4.1-.6.2-.2.1-.7.4-1.5 1.1l-1.1 1c-.1.1-.2.1-.1.3l.9 1.9c.2.5.4.6.8.7h.2v.2h-1.9v-.2h.2c.3 0 .3-.1.1-.5l-.9-1.7c-.2-.3-.3-.4-.3-.4-.2 0-.2.1-.3.2l-.4 1.3c-.2.8-.3 1 .2 1h.2v.2h-2v-.2h.3c.4 0 .5-.1.8-1l1-3.1c.3-.8.3-.9-.1-1h-.2c-.1-.1 0-.2.1-.2h1.9c.1 0 .1.2 0 .2h-.2c-.5.1-.5.2-.8 1l-.4 1.1c-.1.2-.1.2.2.2.1 0 .2 0 .4-.1s.5-.4.9-.7l.8-.8c.5-.4.5-.6.5-.6 0-.1-.1-.1-.2-.1h-.2v-.2h1.8l.1.2z"/>
  <path fill="#010101" d="M221 92.7h-29V49.8h57.4v42.9H221c.1 0 .3.1.3.3v.3h28.4c.1 0 .3-.1.3-.3V49.5c0-.1-.1-.3-.3-.3h-28.6l-.1.3-.1-.3h-29.1c-.1 0-.3.1-.3.3V59l.3.1-.3.1V83l.3.1-.3.1v9.5c0 .1.1.3.3.3h29v-.3c-.1.1.1 0 .2 0z"/>
  <path fill="#010101" d="M220.1 73.1c-.7 1.5-1.1 1.5-2.3 1.5-.9 0-1.2-.1-1.4-.3-.2-.2-.2-.6-.2-1.2v-1.5c0-.4 0-.4.4-.4h.9c.7 0 .8.1 1 .7l.1.3c.1.1.4.1.5 0v-2.8c-.1-.1-.4-.1-.5 0l-.1.3c-.1.6-.3.7-1 .7h-.9c-.3 0-.4 0-.4-.4v-2.3c0-.5 0-.5.4-.5h1c.6 0 1 .2 1.3.4.2.2.3.6.5 1 .1.1.4.1.5-.1-.1-.9-.2-1.8-.2-2h-6.3c-.1.1-.1.4 0 .5l.3.1c.6.1.7.2.7 1.4v4.8c0 1.2-.1 1.3-.7 1.4l-.6.1c-.1.1-.1.4 0 .5h6.9c.2-.3.5-1.4.5-2.1 0-.2-.3-.2-.4-.1zm6.1-1.9v.2h.2c.1 0 .2.1.2.1 0 .1-.1.2-.5.6l-.8.8c-.4.3-.7.6-.9.7-.1.1-.2.1-.4.1s-.2-.1-.2-.2l.4-1.1c.3-.8.3-.9.8-1h.2c.1 0 .1-.2 0-.2h-1.9c-.1 0-.1.1-.1.2h.2c.4.1.4.2.1 1l-1 3.1c-.3.9-.4 1-.8 1h-.3v.2h2v-.2h-.2c-.4 0-.4-.2-.2-1l.4-1.3c.1-.2.1-.2.3-.2.1 0 .2 0 .3.4l.9 1.7c.2.3.2.4-.1.5h-.2v.2h1.9v-.2h-.2c-.4-.1-.5-.2-.8-.7l-.9-1.9c-.1-.2-.1-.2.1-.3l1.1-1c.8-.8 1.3-1 1.5-1.1.2-.1.4-.1.6-.2h.2v-.2h-1.9z"/>
  <path fill="#D7E3BF" d="M192 136.1h77v-18.8h-77v18.8zm42.3-9.2c.1.2.1.6.1 1.1v3.3c0 .7 0 .8.4.8h.4v.2h-2v-.2h.3c.4 0 .4-.2.4-.8v-2.9c0-.6 0-.8-.4-.8h-.4v-.2c.5-.1 1-.4 1.2-.5zm-7-1.5c.8-.7 2-1.2 3.2-1.2.8 0 1.3.2 1.6.3-.2.4-.3.9-.4 1.3h-.3c.2-.8-.1-1.3-1.1-1.3-.7 0-1.6.2-2.5 1.1-.5.5-1.1 1.6-1.1 2.9 0 1.4.6 2.1 1.9 2.1 1 0 1.6-.6 2.1-1.4.1 0 .2 0 .2.1-.1.3-.3.8-.6 1.4-.2 0-.5.1-.8.1-.3 0-.6.1-.9.1-1.3 0-2.7-.6-2.7-2.6.1-1.1.6-2.2 1.4-2.9z"/>
  <path fill="#010101" d="M269.6 117.1c0-.1-.1-.3-.3-.3h-77.5c-.1 0-.3.1-.3.3v19.3c0 .1.1.3.3.3h77.5c.1 0 .3-.1.3-.3v-19.3zm-.5 19h-77v-18.8h77v18.8z"/>
  <path fill="#010101" d="M228.7 130.9c.3 0 .7-.1.9-.1.3 0 .6-.1.8-.1.3-.6.5-1.1.6-1.4 0-.1-.1-.1-.2-.1-.5.8-1.1 1.4-2.1 1.4-1.2 0-1.9-.7-1.9-2.1 0-1.3.7-2.4 1.1-2.9.9-.9 1.8-1.1 2.5-1.1 1 0 1.2.5 1.1 1.3h.3c.1-.4.3-.9.4-1.3-.2-.1-.8-.3-1.6-.3-1.3 0-2.4.4-3.2 1.2-.8.7-1.4 1.8-1.4 2.9 0 2 1.4 2.6 2.7 2.6zm4.6-3.3c.4 0 .4.2.4.8v2.9c0 .7 0 .8-.4.8h-.3v.2h2v-.2h-.4c-.3 0-.4-.2-.4-.8v-4.4h-.1c-.2.1-.7.4-1.4.5v.2h.6zm16.8 13.4v-2.3s0-.1-.1-.1-.1 0-.1.1v4.8s0 .1.1.1.1 0 .1-.1V141zm10.3 1l.5-2.4h1.5l.1-.5h-2.4c-.4 0-.7.1-1 .2l.1.5c.3-.1.5-.1.8-.1h.5c-.4 1.7-.5 2.6-.5 2.6 0 .2 0 .3.1.4.1.1.2.2.4.2s.3-.1.5-.2.3-.3.3-.5h-.3v.1l-.1.1-.2.1-.1-.1-.2-.4zm7.6-1h-3.8s-.1 0-.1.1 0 .1.1.1h3.8v-.2z"/>
  <path fill="#010101" d="M267.8 140.2c.1.2.2.5.2.8v.1c0 .3-.1.6-.2.9l1.5-.8v-.3l-1.5-.7zm1.8.9l-.2-.1v.1m-14.3 0c0-.1 0-.1 0 0l-3.5-.1v.1h3.5z"/>
  <path fill="#010101" d="M251.6 141c0-.3.1-.6.2-.8l-1.7.8h-.1.1l1.7.9c-.1-.3-.2-.6-.2-.9 0 .1 0 0 0 0z"/>
  <path fill="#D7E3BF" d="M322.2 11.2h-33.3V30h33.3V11.2zM308 18.4h-.2c-.3.1-.5.1-.6.2-.1.2-.2.5-.4 1.2l-.8 3c-.2.7-.3 1.1-.3 1.2 0 .2.1.2.4.3h.3v.2H304v-.2h.3c.2 0 .4-.1.5-.2.1-.1.3-.6.5-1.2l.8-2.5c.2-.5.3-.9.4-1.2-.1.2-.4.5-.9 1.2l-1.5 1.9c-.6.7-1.1 1.4-1.5 2.2h-.2c0-.3 0-.9-.2-2l-.3-3.2c-.2.3-.3.8-.4 1.1l-.7 2c-.5 1.2-.6 1.6-.6 1.8 0 .1 0 .2.3.2l.4.1v.2h-2.1v-.2h.3c.2 0 .4-.1.6-.3.2-.2.6-1.2 1.2-2.8l.5-1.3c.3-.8.4-1.1.4-1.3 0-.1-.1-.2-.3-.2l-.5-.1v-.2h1.7c-.1.5-.1 1.1 0 1.9l.2 1.2c.1.8.2 1.3.2 1.8.4-.5.7-.9 1.1-1.4l1.5-2c.7-.9.9-1.3.9-1.5h1.6v.1zm3.4 7.7h-3.2l-.1-.1.1-.1c.4-.3.7-.5 1.3-1.2.6-.6 1.2-1.4 1.2-2.3 0-.8-.4-1.2-1.1-1.2-.5 0-.9.3-1.1.8-.1 0-.2 0-.2-.1.3-.7.9-1.2 1.7-1.2.8 0 1.4.6 1.4 1.4 0 .5-.2 1.1-.9 1.9l-.5.6c-.7.8-.8.9-.8 1 0 .1 0 .1.3.1h1c.4 0 .6-.1.8-.2.2-.1.2-.3.3-.3l.2.1c-.1.2-.3.7-.4.8z"/>
  <path fill="#010101" d="M317.6 29.9h-28.7V11.2h33.3V30h-4.6c.1 0 .3.1.3.3v.3h4.6c.1 0 .3-.1.3-.3V10.9c0-.1-.1-.3-.3-.3h-33.8c-.1 0-.3.1-.3.3v19.3c0 .1.1.3.3.3h28.7v-.3c-.1-.2.1-.3.2-.3z"/>
  <path fill="#010101" d="M306.4 18.1c0 .2-.2.6-.9 1.5l-1.5 2c-.4.5-.7 1-1.1 1.4 0-.4-.1-.9-.2-1.8l-.2-1.2c-.1-.8-.2-1.4 0-1.9h-1.7v.2l.5.1c.2 0 .3.1.3.2 0 .2-.1.5-.4 1.3l-.5 1.3c-.6 1.6-1 2.6-1.2 2.8-.1.2-.3.2-.6.3h-.3v.2h2.1v-.2l-.4-.1c-.2 0-.3-.1-.3-.2 0-.2.1-.6.6-1.8l.7-2c.1-.4.3-.8.4-1.1l.3 3.2c.1 1.1.2 1.6.2 2h.2c.4-.7 1-1.5 1.5-2.2l1.5-1.9c.5-.7.8-1 .9-1.2-.1.3-.2.7-.4 1.2l-.8 2.5c-.2.6-.4 1.1-.5 1.2-.1.1-.4.2-.5.2h-.3v.2h2.4v-.2h-.3c-.3 0-.4-.1-.4-.3 0-.2.1-.5.3-1.2l.8-3c.2-.7.3-1 .4-1.2.1-.1.2-.2.6-.2h.2V18h-1c0 .1-.2.1-.4.1zm5 7.3c-.2.1-.4.2-.8.2h-1c-.2 0-.3 0-.3-.1s.1-.2.8-1l.5-.6c.7-.8.9-1.3.9-1.9 0-.8-.5-1.4-1.4-1.4-.8 0-1.4.4-1.7 1.2 0 .1.1.2.2.1.2-.5.6-.8 1.1-.8.7 0 1.1.5 1.1 1.2 0 .9-.7 1.7-1.2 2.3-.6.7-.9 1-1.3 1.2l-.1.1.1.1h3.2c.1-.2.3-.6.4-1l-.2-.1c-.1.2-.2.4-.3.5z"/>
  <path fill="#FAD7BB" d="M288.9 92.7h57.5V49.8h-57.5v42.9zm29.8-16.1c.4 0 .5-.1.8-1l1-3.1c.3-.8.3-.9-.1-1h-.2c-.1-.1 0-.2.1-.2h1.9c.1 0 .1.2 0 .2h-.2c-.5.1-.5.2-.8 1l-.4 1.1c-.1.2-.1.2.2.2.1 0 .2 0 .4-.1s.5-.4.9-.7l.8-.8c.5-.4.5-.6.5-.6 0-.1-.1-.1-.2-.1h-.2v-.2h1.8v.2h-.2c-.2 0-.4.1-.6.2-.2.1-.7.4-1.5 1.1l-1.1 1c-.1.1-.2.1-.1.3l.9 1.9c.2.5.4.6.8.7h.2v.2h-1.9v-.2h.2c.3 0 .3-.1.1-.5l-.9-1.7c-.2-.3-.3-.4-.3-.4-.2 0-.2.1-.3.2l-.4 1.3c-.2.8-.3 1 .2 1h.2v.2h-2v-.2h.4zm-9-1.8l.6-.1c.6-.1.7-.2.7-1.4v-4.8c0-1.2-.1-1.2-.7-1.4l-.3-.1c-.1-.1-.1-.4 0-.5h6.3c0 .2.1 1.1.2 2-.1.1-.3.2-.5.1-.1-.5-.3-.8-.5-1-.2-.2-.6-.4-1.3-.4h-1c-.4 0-.4 0-.4.5V70c0 .4 0 .4.4.4h.9c.7 0 .8-.1 1-.7l.1-.3c.1-.1.4-.1.5 0v2.8c-.1.1-.4.1-.5 0l-.1-.3c-.1-.6-.3-.7-1-.7h-.9c-.3 0-.4 0-.4.4v1.5c0 .6.1 1 .2 1.2.2.2.4.3 1.4.3 1.1 0 1.6 0 2.3-1.5.1-.1.4-.1.5.1-.1.7-.4 1.7-.5 2.1h-6.9c-.2-.1-.2-.4-.1-.5z"/>
  <path fill="#010101" d="M317.6 49.5l-.1-.3h-28.9c-.1 0-.3.1-.3.3V59l.3.1-.3.1V83l.3.1-.3.1v9.5c0 .1.1.3.3.3h28.7c0-.1.1-.2.3-.2s.2.1.3.2h28.7c.1 0 .3-.1.3-.3V49.5c0-.1-.1-.3-.3-.3h-28.9l-.1.3zm28.7.3v42.9h-57.5V49.8h57.5z"/>
  <path fill="#010101" d="M311.9 75.2h4.7c.2-.3.5-1.4.5-2.1-.1-.2-.4-.2-.5-.1-.7 1.5-1.1 1.5-2.3 1.5-.9 0-1.2-.1-1.4-.3-.2-.2-.2-.6-.2-1.2v-1.5c0-.4 0-.4.4-.4h.9c.7 0 .8.1 1 .7l.1.3c.1.1.4.1.5 0v-2.8c-.1-.1-.4-.1-.5 0l-.1.3c-.1.6-.3.7-1 .7h-.9c-.3 0-.4 0-.4-.4v-2.3c0-.5 0-.5.4-.5h1c.6 0 1 .2 1.3.4.2.2.3.6.5 1 .1.1.4.1.5-.1-.1-.9-.2-1.8-.2-2h-6.3c-.1.1-.1.4 0 .5l.3.1c.6.1.7.2.7 1.4v4.8c0 1.2-.1 1.3-.7 1.4l-.6.1c-.1.1-.1.4 0 .5h2.3zm7.5 1.6h1v-.2h-.2c-.4 0-.4-.2-.2-1l.4-1.3c.1-.2.1-.2.3-.2.1 0 .2 0 .3.4l.9 1.7c.2.3.2.4-.1.5h-.2v.2h1.9v-.2h-.2c-.4-.1-.5-.2-.8-.7l-.9-1.9c-.1-.2-.1-.2.1-.3l1.1-1c.8-.8 1.3-1 1.5-1.1.2-.1.4-.1.6-.2h.2v-.2h-1.8v.2h.2c.1 0 .2.1.2.1 0 .1-.1.2-.5.6l-.8.8c-.4.3-.7.6-.9.7-.1.1-.2.1-.4.1s-.2-.1-.2-.2l.4-1.1c.3-.8.3-.9.8-1h.2c.1 0 .1-.2 0-.2h-1.9c-.1 0-.1.1-.1.2h.2c.4.1.4.2.1 1l-1 3.1c-.3.9-.4 1-.8 1h-.3v.2h.9z"/>
  <path fill="#D7E3BF" d="M288.9 136.1h52.6v-18.8h-52.6v18.8zm29.6-9.2c.8 0 1.4.6 1.4 1.4 0 .5-.2 1.1-.9 1.9l-.5.6c-.7.8-.8.9-.8 1 0 .1 0 .1.3.1h1c.4 0 .6-.1.8-.2.2-.1.2-.3.3-.3l.2.1c-.1.4-.3.9-.4 1h-3.2l-.1-.1.1-.1c.4-.3.7-.5 1.3-1.2.6-.6 1.2-1.4 1.2-2.3 0-.8-.4-1.2-1.1-1.2-.5 0-.9.3-1.1.8-.1 0-.2 0-.2-.1.3-1 .9-1.4 1.7-1.4zm-6.7-1.5c.8-.7 2-1.2 3.2-1.2.8 0 1.3.2 1.6.3-.2.4-.3.9-.4 1.3h-.3c.2-.8-.1-1.3-1.1-1.3-.7 0-1.6.2-2.5 1.1-.5.5-1.1 1.6-1.1 2.9 0 1.4.6 2.1 1.9 2.1 1 0 1.6-.6 2.1-1.4.1 0 .2 0 .2.1-.1.3-.3.8-.6 1.4-.2 0-.5.1-.8.1-.3 0-.6.1-.9.1-1.3 0-2.7-.6-2.7-2.6.1-1.1.7-2.2 1.4-2.9z"/>
  <path fill="#010101" d="M342 136.4v-19.3c0-.1-.1-.3-.3-.3h-53.1c-.1 0-.3.1-.3.3v19.3c0 .1.1.3.3.3h53.1c.2-.1.3-.2.3-.3zm-.5-.3h-52.6v-18.8h52.6v18.8z"/>
  <path fill="#010101" d="M313.2 130.9c.3 0 .7-.1.9-.1.3 0 .5-.1.8-.1.3-.6.5-1.1.6-1.4 0-.1-.1-.1-.2-.1-.5.8-1.1 1.4-2.1 1.4-1.2 0-1.9-.7-1.9-2.1 0-1.3.7-2.4 1.1-2.9.9-.9 1.8-1.1 2.5-1.1 1 0 1.2.5 1.1 1.3h.3c.1-.4.3-.9.4-1.3-.2-.1-.8-.3-1.6-.3-1.3 0-2.4.4-3.2 1.2-.8.7-1.4 1.8-1.4 2.9 0 2 1.4 2.6 2.7 2.6zm3.8-2.7c.2-.5.6-.8 1.1-.8.7 0 1.1.5 1.1 1.2 0 .9-.7 1.7-1.2 2.3-.6.7-.9 1-1.3 1.2l-.1.1.1.1h3.2c.1-.2.3-.6.4-1l-.2-.1c-.1.1-.1.2-.3.3-.2.1-.4.2-.8.2h-1c-.2 0-.3 0-.3-.1s.1-.2.8-1l.5-.6c.7-.8.9-1.3.9-1.9 0-.8-.5-1.4-1.4-1.4-.8 0-1.4.4-1.7 1.2 0 .3.1.3.2.3z"/>
  <path fill="#D7E3BF" d="M476.7 11.2h-91.2V30h91.2V11.2zm-43.1 7.2h-.2c-.3.1-.5.1-.6.2-.1.2-.2.5-.4 1.2l-.8 3c-.2.7-.3 1.1-.3 1.2 0 .2.1.2.4.3h.3v.2h-2.4v-.2h.3c.2 0 .4-.1.5-.2.1-.1.3-.6.5-1.2l.8-2.5c.2-.5.3-.9.4-1.2-.1.2-.4.5-.9 1.2l-1.5 1.9c-.6.7-1.1 1.4-1.5 2.2h-.2c0-.3 0-.9-.2-2l-.3-3.2c-.2.3-.3.8-.4 1.1l-.7 2c-.5 1.2-.6 1.6-.6 1.8 0 .1 0 .2.3.2l.4.1v.2h-2.1v-.2h.3c.2 0 .4-.1.6-.3.2-.2.6-1.2 1.2-2.8l.5-1.3c.3-.8.4-1.1.4-1.3 0-.1-.1-.2-.3-.2l-.5-.1v-.2h1.7c-.1.5-.1 1.1 0 1.9l.2 1.2c.1.8.2 1.3.2 1.8.4-.5.7-.9 1.1-1.4l1.5-2c.7-.9.9-1.3.9-1.5h1.6v.1zm2.8 7.5c-.6.5-1.4.7-1.8.7-.4 0-.8-.1-.8-.5 0-.2.1-.3.3-.3.2 0 .3.2.4.3.1.2.2.3.4.3.5 0 1.5-.7 1.5-1.7 0-.7-.4-1.4-1.1-1.4-.4 0-.7.2-.9.4-.1 0-.2-.1-.2-.3.3-.1 1-.5 1.4-.7.2-.2.4-.4.4-.8s-.3-.7-.7-.7c-.5 0-.9.3-1.1.7l-.2-.1c.3-.6.9-1 1.5-1 .7 0 1.2.4 1.2 1 0 .3-.1.7-.9 1.1 0 .1 0 .1.1.1.6.1 1.2.5 1.2 1.3.1.5-.2 1.1-.7 1.6z"/>
  <path fill="#010101" d="M414.2 29.9h-28.7V11.2h91.2V30h-62.5c.1 0 .3.1.3.3v.3H477c.1 0 .3-.1.3-.3V10.9c0-.1-.1-.3-.3-.3h-91.8c-.1 0-.3.1-.3.3v19.3c0 .1.1.3.3.3h28.7v-.3c0-.2.1-.3.3-.3z"/>
  <path fill="#010101" d="M432 18.1c0 .2-.2.6-.9 1.5l-1.5 2c-.4.5-.7 1-1.1 1.4 0-.4-.1-.9-.2-1.8L428 20c-.1-.8-.2-1.4 0-1.9h-1.7v.2l.5.1c.2 0 .3.1.3.2 0 .2-.1.5-.4 1.3l-.5 1.3c-.6 1.6-1 2.6-1.2 2.8-.1.2-.3.2-.6.3h-.3v.2h2.1v-.2l-.4-.1c-.2 0-.3-.1-.3-.2 0-.2.1-.6.6-1.8l.7-2c.1-.4.3-.8.4-1.1l.3 3.2c.1 1.1.2 1.6.2 2h.2c.4-.7 1-1.5 1.5-2.2l1.5-1.9c.5-.7.8-1 .9-1.2-.1.3-.2.7-.4 1.2l-.8 2.5c-.2.6-.4 1.1-.5 1.2-.1.1-.4.2-.5.2h-.3v.2h2.4v-.2h-.3c-.3 0-.4-.1-.4-.3 0-.2.1-.5.3-1.2l.8-3c.2-.7.3-1 .4-1.2.1-.1.2-.2.6-.2h.2V18h-1c0 .1-.1.1-.3.1zm4 4.8c-.1 0-.1 0-.1-.1.8-.4.9-.7.9-1.1 0-.6-.5-1-1.2-1s-1.3.4-1.5 1l.2.1c.3-.4.6-.7 1.1-.7.4 0 .7.3.7.7 0 .4-.3.7-.4.8-.3.3-1 .6-1.4.7-.1.2.1.3.2.3.2-.2.5-.4.9-.4.7 0 1.1.6 1.1 1.4 0 .9-1 1.7-1.5 1.7-.2 0-.3-.1-.4-.3-.1-.1-.2-.3-.4-.3s-.3.2-.3.3c0 .4.5.5.8.5.4 0 1.1-.2 1.8-.7.5-.5.8-1.1.8-1.7-.1-.7-.7-1.2-1.3-1.2z"/>
  <path fill="#FAD7BB" d="M442.9 49.8h-57.4v42.9h57.4V49.8zm-29.8 25.4h-6.9c-.1-.1-.1-.4 0-.5l.6-.1c.6-.1.7-.2.7-1.4v-4.8c0-1.2-.1-1.2-.7-1.4l-.3-.1c-.1-.1-.1-.4 0-.5h6.3c0 .2.1 1.1.2 2-.1.1-.3.2-.5.1-.1-.5-.3-.8-.5-1-.2-.2-.6-.4-1.3-.4h-1c-.4 0-.4 0-.4.5V70c0 .4 0 .4.4.4h.9c.7 0 .8-.1 1-.7l.1-.3c.1-.1.4-.1.5 0v2.8c-.1.1-.4.1-.5 0l-.1-.3c-.1-.6-.3-.7-1-.7h-.9c-.3 0-.4 0-.4.4v1.5c0 .6.1 1 .2 1.2.2.2.4.3 1.4.3 1.1 0 1.6 0 2.3-1.5.1-.1.4-.1.5.1-.1.6-.4 1.7-.6 2zm8.5-3.8h-.2c-.2 0-.4.1-.6.2-.2.1-.7.4-1.5 1.1l-1.1 1c-.1.1-.2.1-.1.3l.9 1.9c.2.5.4.6.8.7h.2v.2h-1.9v-.2h.2c.3 0 .3-.1.1-.5l-.9-1.7c-.2-.3-.3-.4-.3-.4-.2 0-.2.1-.3.2l-.4 1.3c-.2.8-.3 1 .2 1h.2v.2h-2v-.2h.3c.4 0 .5-.1.8-1l1-3.1c.3-.8.3-.9-.1-1h-.2c-.1-.1 0-.2.1-.2h1.9c.1 0 .1.2 0 .2h-.2c-.5.1-.5.2-.8 1l-.4 1.1c-.1.2-.1.2.2.2.1 0 .2 0 .4-.1s.5-.4.9-.7l.8-.8c.5-.4.5-.6.5-.6 0-.1-.1-.1-.2-.1h-.2v-.2h1.8l.1.2z"/>
  <path fill="#010101" d="M414.2 92.7h-28.7V49.8h57.4v42.9h-28.7c.1 0 .3.1.3.3v.3h28.7c.1 0 .3-.1.3-.3V49.5c0-.1-.1-.3-.3-.3h-28.8l-.1.3-.1-.3h-28.9c-.1 0-.3.1-.3.3V59l.3.1-.3.1v33.6c0 .1.1.3.3.3H414v-.3c-.1 0 0-.1.2-.1z"/>
  <path fill="#010101" d="M413.2 73.1c-.7 1.5-1.1 1.5-2.3 1.5-.9 0-1.2-.1-1.4-.3-.2-.2-.2-.6-.2-1.2v-1.5c0-.4 0-.4.4-.4h.9c.7 0 .8.1 1 .7l.1.3c.1.1.4.1.5 0v-2.8c-.1-.1-.4-.1-.5 0l-.1.3c-.1.6-.3.7-1 .7h-.9c-.3 0-.4 0-.4-.4v-2.3c0-.5 0-.5.4-.5h1c.6 0 1 .2 1.3.4.2.2.3.6.5 1 .1.1.4.1.5-.1-.1-.9-.2-1.8-.2-2h-6.3c-.1.1-.1.4 0 .5l.3.1c.6.1.7.2.7 1.4v4.8c0 1.2-.1 1.3-.7 1.4l-.6.1c-.1.1-.1.4 0 .5h6.9c.2-.3.5-1.4.5-2.1 0-.2-.3-.2-.4-.1zm6.6-1.9v.2h.2c.1 0 .2.1.2.1 0 .1-.1.2-.5.6l-.8.8c-.4.3-.7.6-.9.7-.1.1-.2.1-.4.1s-.2-.1-.2-.2l.4-1.1c.3-.8.3-.9.8-1h.2c.1 0 .1-.2 0-.2h-1.9c-.1 0-.1.1-.1.2h.2c.4.1.4.2.1 1l-1 3.1c-.3.9-.4 1-.8 1h-.3v.2h2v-.2h-.2c-.4 0-.4-.2-.2-1l.4-1.3c.1-.2.1-.2.3-.2.1 0 .2 0 .3.4l.9 1.7c.2.3.2.4-.1.5h-.2v.2h1.9v-.2h-.2c-.4-.1-.5-.2-.8-.7l-.9-1.9c-.1-.2-.1-.2.1-.3l1.1-1c.8-.8 1.3-1 1.5-1.1.2-.1.4-.1.6-.2h.2v-.2h-1.9z"/>
  <path fill="#D7E3BF" d="M390.3 135.6H496v-18.8H390.3v18.8zm55.9-6.5c-.4 0-.7.2-.9.4-.1 0-.2-.1-.2-.3.3-.1 1-.5 1.4-.7.2-.2.4-.4.4-.8s-.3-.7-.7-.7c-.5 0-.9.3-1.1.7l-.2-.1c.3-.6.9-1 1.5-1 .7 0 1.2.4 1.2 1 0 .3-.1.7-.9 1.1 0 .1 0 .1.1.1.6.1 1.2.5 1.2 1.3 0 .6-.3 1.2-.8 1.7-.6.5-1.4.7-1.8.7-.4 0-.8-.1-.8-.5 0-.2.1-.3.3-.3.2 0 .3.2.4.3.1.2.2.3.4.3.5 0 1.5-.7 1.5-1.7.1-.9-.2-1.5-1-1.5zm-6.4-4.6c.8-.7 2-1.2 3.2-1.2.8 0 1.3.2 1.6.3-.2.4-.3.9-.4 1.3h-.3c.2-.8-.1-1.3-1.1-1.3-.7 0-1.6.2-2.5 1.1-.5.5-1.1 1.6-1.1 2.9 0 1.4.6 2.1 1.9 2.1 1 0 1.6-.6 2.1-1.4.1 0 .2 0 .2.1-.1.3-.3.8-.6 1.4-.2 0-.5.1-.8.1-.3 0-.6.1-.9.1-1.3 0-2.7-.6-2.7-2.6.1-1.1.6-2.1 1.4-2.9z"/>
  <path fill="#010101" d="M496.3 116.3h-82l-.1.3-.1-.3h-24c-.1 0-.3.1-.3.3v19.3c0 .1.1.3.3.3h106.2c.1 0 .3-.1.3-.3v-19.3c-.1-.2-.2-.3-.3-.3zm-.3.5v18.8H390.3v-18.8H496z"/>
  <path fill="#010101" d="M441.2 130c.3 0 .7-.1.9-.1.3 0 .5-.1.8-.1.3-.6.5-1.1.6-1.4 0-.1-.1-.1-.2-.1-.5.8-1.1 1.4-2.1 1.4-1.2 0-1.9-.7-1.9-2.1 0-1.3.7-2.4 1.1-2.9.9-.9 1.8-1.1 2.5-1.1 1 0 1.2.5 1.1 1.3h.3c.1-.4.3-.9.4-1.3-.2-.1-.8-.3-1.6-.3-1.3 0-2.4.4-3.2 1.2-.8.7-1.4 1.8-1.4 2.9 0 2.1 1.4 2.6 2.7 2.6zm4.6 2.1c-.2 0-.3-.1-.4-.3-.1-.1-.2-.3-.4-.3s-.3.2-.3.3c0 .4.5.5.8.5.4 0 1.1-.2 1.8-.7.5-.5.8-1.1.8-1.7 0-.8-.6-1.3-1.2-1.3-.1 0-.1 0-.1-.1.8-.4.9-.7.9-1.1 0-.6-.5-1-1.2-1s-1.3.4-1.5 1l.2.1c.3-.4.6-.7 1.1-.7.4 0 .7.3.7.7 0 .4-.3.7-.4.8-.3.3-1 .6-1.4.7-.1.2.1.3.2.3.2-.2.5-.4.9-.4.7 0 1.1.6 1.1 1.4-.1 1.1-1 1.8-1.6 1.8zM188.4 83h-10.8c-.1 0-.3.1-.3.3s.1.3.3.3h10.8V83z"/>
  <path fill="#010101" d="M191.5 83.1l-3.5-1.8c.2.5.4 1.1.4 1.6v.5c0 .6-.2 1.1-.4 1.6l3.5-1.8.3-.1h-.3zm-11-3.2c0 .4.2.8.5 1.1.3.3.7.4 1.3.4.5 0 .9-.1 1.2-.3.3-.2.6-.5.7-1l-.3-.1c-.2.3-.3.6-.6.8-.2.2-.5.2-.7.2-.3 0-.6-.1-.8-.3-.2-.2-.3-.5-.3-.8 0-.3.1-.6.2-.7.1-.2.3-.3.5-.3.1 0 .2 0 .4.1s.3.1.4.1c.1 0 .2 0 .3-.1.1-.1.1-.1.1-.3 0-.1 0-.2-.1-.2-.1-.1-.1-.1-.3-.1-.1 0-.2 0-.4.1-.2 0-.3.1-.4.1-.2 0-.4-.1-.5-.3-.1-.2-.2-.4-.2-.7 0-.3.1-.5.2-.7.1-.2.3-.2.5-.2s.3 0 .4.1c.1.1.2.2.3.4.1.2.2.3.2.3.1.1.2.1.3.1.1 0 .2 0 .3-.1.1-.1.1-.2.1-.3 0-.2-.2-.4-.5-.6-.3-.2-.7-.2-1.1-.2-.5 0-.9.1-1.2.4-.3.2-.5.5-.5.9 0 .3.1.5.3.7.2.2.4.3.7.4-.3.1-.6.3-.8.5-.1 0-.2.3-.2.6zM285.3 83h-10.9c-.1 0-.3.1-.3.3s.1.3.3.3h10.9V83z"/>
  <path fill="#010101" d="M288.3 83.1l-3.5-1.8c.3.5.4 1.1.5 1.6v.5c0 .6-.2 1.1-.5 1.6l3.5-1.8.3-.1h-.3zm-9.6-3.2c0 .4.2.8.5 1.1.3.3.7.4 1.3.4.5 0 .9-.1 1.2-.3.3-.2.6-.5.7-1l-.3-.1c-.2.3-.3.6-.6.8-.2.2-.5.2-.7.2-.3 0-.6-.1-.8-.3-.2-.2-.3-.5-.3-.8 0-.3.1-.6.2-.7.1-.2.3-.3.5-.3.1 0 .2 0 .4.1s.3.1.4.1c.1 0 .2 0 .3-.1.1-.1.1-.1.1-.3 0-.1 0-.2-.1-.2-.1-.1-.1-.1-.3-.1-.1 0-.2 0-.4.1s-.3.1-.4.1c-.2 0-.4-.1-.5-.3-.1-.2-.2-.4-.2-.7 0-.3.1-.5.2-.7.1-.2.3-.2.5-.2s.3 0 .4.1.2.2.3.4c.1.2.2.3.2.3.1.1.2.1.3.1.1 0 .2 0 .3-.1.1-.1.1-.2.1-.3 0-.2-.2-.4-.5-.6-.3-.2-.7-.2-1.1-.2-.5 0-.9.1-1.2.4-.3.2-.5.5-.5.9 0 .3.1.5.3.7.2.2.4.3.7.4-.3.1-.6.3-.8.5-.1 0-.2.3-.2.6zm91.6 3.4c0 .1.1.3.3.3h10.8v-.5h-10.8c-.1-.1-.3 0-.3.2z"/>
  <path fill="#010101" d="M381.4 83.5c0 .6-.2 1.1-.4 1.6l3.8-1.9-3.8-1.9c.2.5.4 1.1.4 1.6 0 .3.1.5 0 .6zm-5.5-4.9c0-1.5-.6-3.2-2-3.2s-2 1.7-2 3.2c0 1.5.6 3.2 2 3.2s2-1.7 2-3.2zm-3.2 0c0-.9.1-2.9 1.1-2.9s1.1 2 1.1 2.9c0 .9-.1 2.9-1.1 2.9s-1.1-2-1.1-2.9zm4.1-.7c-.1.2.2.2.2.2l.2-.1c.5-.9.8-1.6 1.3-2.1.5-.6 1-1 1.2-1 .1 0 .1.1.1.2 0 .2-.1.5-.2.6-.2.4-.5 1.3-.7 1.7-.2.4-.2.5-.2.6 0 .1.1.2.2.2.5 0 1.1-.4 1.5-.9 0-.1 0-.1-.1-.1-.2.3-.7.6-.8.6v-.2c0-.1.6-1.4.8-1.9.1-.2.1-.5.1-.6 0-.3-.1-.5-.5-.5-.6 0-1.5.9-2.1 1.8l.6-1.5c.1-.2 0-.3-.2-.3-.4 0-.9.3-1.3.8l.1.1c.3-.2.6-.4.8-.4.1 0 .1.1 0 .2s-1 2.5-1 2.6z"/>
  <path fill="#DBEEF2" d="M259.4 44.4v-6.8l-9.1-2.3v9.1"/>
  <path fill="#010101" d="M250 44.9h9.7c.1 0 .3-.1.3-.3V40h-.3c-.1 0-.3-.1-.3-.3v4.6h-9.1v-4.6c0 .1-.1.3-.3.3h-.3v4.6c0 .2.2.3.3.3z"/>
  <path fill="#010101" d="M250 39.6c.1 0 .3.1.3.3v-4.5l9.1 2.3v2.2c0-.1.1-.3.3-.3h.3v-2.2c0-.1-.1-.2-.2-.3l-9.7-2.4h-.2c-.1.1-.1.1-.1.2v4.6h.2zm-28.7 6.5v-6h-.3c-.1 0-.3-.1-.3-.3v6.3h.6z"/>
  <path fill="#010101" d="M221 39.6h.3v-9.4c0-.1-.1-.3-.3-.3s-.3.1-.3.3v9.7c0-.2.2-.3.3-.3zm0 9.9l.1-.3 1.8-3.5c-.5.3-1.1.4-1.6.4h-.5c-.6 0-1.1-.2-1.6-.4l1.8 3.5v.3zm-.3 53.1v10.6h.5v-10.3h-.2c-.1 0-.3-.2-.3-.3zm.3-.3h.3v-9.4c0-.1-.1-.3-.3-.3s-.3.1-.3.3v9.7c0-.1.2-.3.3-.3z"/>
  <path fill="#010101" d="M220.7 113.2c-.6 0-1.1-.2-1.6-.4l1.9 3.8 1.9-3.8c-.5.3-1.1.4-1.6.4h-.6zm.3-73.1h29.1c.1 0 .3-.1.3-.3s-.1-.3-.3-.3H221c-.1 0-.3.1-.3.3s.2.3.3.3zm.3 62.2h-.3c-.1 0-.3.1-.3.3s.1.3.3.3h28.8v-.5h-28.5zm64-43.4h-15.7v.5h15.7v-.5zm-18.4 0c-.1 0-.2.1-.2.2s.1.2.2.2h2.2v-.5l-2.2.1z"/>
  <path fill="#010101" d="M288.3 59l-3.5-1.8c.3.5.4 1.1.5 1.6v.5c0 .6-.2 1.1-.5 1.6l3.5-1.8.3-.1h-.3zm-18.7 2.6V39.8c0 .1-.1.3-.3.3h-.3v62.2h.3c.1 0 .3.1.3.3v-41z"/>
  <path fill="#010101" d="M259.4 39.8c0 .1.1.3.3.3h9.7c.1 0 .3-.1.3-.3s-.1-.3-.3-.3h-9.7c-.2.1-.3.2-.3.3z"/>
  <path fill="#DBEEF2" d="M250.3 98.1v9.1h9.1v-6.8"/>
  <path fill="#010101" d="M259.4 102.6v4.6h-9.1v-9.1l9.1 2.3v2.2c0-.1.1-.3.3-.3h.3v-2.2c0-.1-.1-.2-.2-.3l-9.7-2.4h-.2c-.1 0-.1.1-.1.2v9.7c0 .1.1.3.3.3h9.7c.1 0 .3-.1.3-.3v-4.6h-.3c-.3.2-.4 0-.4-.1z"/>
  <path fill="#010101" d="M269.3 102.3h-9.7c-.1 0-.3.1-.3.3s.1.3.3.3h9.7c.1 0 .3-.1.3-.3s-.1-.3-.3-.3z"/>
  <path fill="#DBEEF2" d="M346.8 35.9v9h9.1v-6.7"/>
  <path fill="#010101" d="M356.2 40.1c-.1 0-.3-.1-.3-.3v5.1h-9.1v-5.1c0 .1-.1.3-.3.3h-.3v5.1c0 .1.1.3.3.3h9.6c.1 0 .3-.1.3-.3v-5.1h-.2z"/>
  <path fill="#010101" d="M346.6 39.6c.1 0 .3.1.3.3v-4l9.1 2.3v1.7c0-.1.1-.3.3-.3h.3V38c0-.1-.1-.2-.2-.3l-9.6-2.4h-.2c-.1 0-.1.1-.1.2v4h.1zm-29.3.2v6.3h.5v-6h-.3s-.2-.1-.2-.3z"/>
  <path fill="#010101" d="M317.6 39.6h.3v-9.4c0-.1-.1-.3-.3-.3s-.3.1-.3.3v9.7c0-.2.2-.3.3-.3zm-.3 6.5c-.6 0-1.1-.2-1.6-.4l1.8 3.5.1.3.1-.3 1.8-3.5c-.5.3-1.1.4-1.6.4h-.6zm0 56.2v11.1h.5v-10.9h-.3c0 .1-.2 0-.2-.2z"/>
  <path fill="#010101" d="M317.6 93c-.1 0-.2.1-.3.2v9.1c0-.1.1-.3.3-.3h.3v-8.8c-.1-.1-.2-.2-.3-.2zm-.3 20.4c-.6 0-1.1-.2-1.6-.4l1.9 3.8 1.9-3.8c-.5.3-1.1.4-1.6.4h-.6zm29.3-73.3c.1 0 .3-.1.3-.3s-.1-.3-.3-.3h-29.1c-.1 0-.3.1-.3.3s.1.3.3.3h29.1z"/>
  <path fill="#010101" d="M317.3 102.3c0 .1.1.3.3.3h28.8v-.6h-28.8c-.1 0-.3.2-.3.3zm64.6-43.4h-15.7v.5h15.7v-.5zm-18.5 0c-.1 0-.3.1-.3.3s.1.3.3.3h2.2V59h-2.2v-.1z"/>
  <path fill="#010101" d="M384.9 59l-3.5-1.8c.3.5.4 1.1.5 1.6v.5c0 .6-.2 1.1-.5 1.6l3.5-1.8.3-.1h-.3zm-18.8 2.6V39.8c0 .1-.1.3-.3.3h-.3v62.8h.3c.1 0 .3.1.3.3V61.6z"/>
  <path fill="#010101" d="M366.1 39.8c0-.1-.1-.3-.3-.3h-9.7c-.1 0-.3.1-.3.3s.1.3.3.3h9.7c.2 0 .3-.1.3-.3z"/>
  <path fill="#DBEEF2" d="M346.8 107.7h9.1v-6.8l-9.1-2.3"/>
  <path fill="#010101" d="M346.3 108c0 .1.1.3.3.3h9.6c.1 0 .3-.1.3-.3v-7.2c0-.1-.1-.2-.2-.3l-9.6-2.4h-.2s-.1.1-.1.2v9.7zm9.6-7.1v6.8h-9.1v-9.1l9.1 2.3z"/>
  <path fill="#010101" d="M365.9 102.9h-9.1c-.1 0-.3.1-.3.3s.1.3.3.3h9c.1 0 .3-.1.3-.3s-.1-.3-.2-.3zm-241.5-.6h.3v-8.9c0-.1-.1-.3-.3-.3s-.3.1-.3.3v9.1c.1 0 .2-.2.3-.2z"/>
  <path fill="#010101" d="M124.7 102.3h-.3c-.1 0-.3.1-.3.3s.1.3.3.3h28.7v-.5h-28.4zm63.7-43.4h-15.7c.1 0 .3.1.3.3v.3h15.4v-.6z"/>
  <path fill="#010101" d="M191.5 59l-3.5-1.8c.3.5.4 1.1.4 1.6v.5c0 .6-.2 1.1-.4 1.6l3.5-1.8.3-.1h-.3z"/>
  <path fill="#DBEEF2" d="M153.7 98.1v9.1h9.1v-6.8"/>
  <path fill="#010101" d="M162.8 102.6v4.6h-9.1v-9.1l9.1 2.3v2.2c0-.1.1-.3.3-.3h.3v-2.2c0-.1-.1-.2-.2-.3l-9.7-2.4h-.2c-.1 0-.1.1-.1.2v9.7c0 .1.1.3.3.3h9.7c.1 0 .3-.1.3-.3v-4.6h-.3c-.3.2-.4 0-.4-.1z"/>
  <path fill="#010101" d="M172.5 102.6v-.3h-9.4c-.1 0-.3.1-.3.3s.1.3.3.3h9.7c-.2 0-.3-.2-.3-.3z"/>
  <path fill="#010101" d="M172.7 58.9c-.1 0-.3.1-.3.3v43.5c0 .1.1.3.3.3s.3-.1.3-.3V59.1c0-.1-.1-.2-.3-.2zm-48-12.8V30.4h-.5v15.7h.5z"/>
  <path fill="#010101" d="M124.4 49.5l.1-.3 1.8-3.5c-.5.3-1.1.4-1.6.4h-.5c-.6 0-1.1-.2-1.6-.4l1.8 3.5v.3z"/>
  <path fill="#D8D9D8" d="M133.8 29.9V11.2H115V30h18.8zm-8.9-9.5c0-.1.9-2.5 1-2.7v-.2c-.2 0-.5.2-.8.4l-.1-.1c.3-.4.8-.8 1.3-.8.2 0 .3.2.2.3l-.6 1.5c.6-.9 1.4-1.8 2.1-1.8.3 0 .5.2.5.5 0 .1-.1.4-.1.6-.2.4-.8 1.8-.8 1.9v.2c.1 0 .5-.3.8-.6.1 0 .1.1.1.1-.3.5-1 .9-1.5.9-.1 0-.2-.1-.2-.2s0-.1.2-.6c.2-.4.5-1.2.7-1.7.1-.2.2-.4.2-.6 0-.1 0-.2-.1-.2-.2 0-.7.4-1.2 1-.4.6-.8 1.2-1.3 2.1l-.2.1c-.1.1-.3.1-.2-.1zm-2.9 4.3c-1.4 0-2-1.6-2-3.2 0-1.5.6-3.2 2-3.2s2 1.7 2 3.2c0 1.5-.6 3.2-2 3.2z"/>
  <path fill="#D8D9D8" d="M122 18.6c-1.1 0-1.1 2-1.1 2.9 0 .9.1 2.9 1.1 2.9s1.1-2 1.1-2.9c0-.9-.1-2.9-1.1-2.9z"/>
  <path fill="#010101" d="M134.1 30.4c.1 0 .3-.1.3-.3V10.9c0-.1-.1-.3-.3-.3h-19.3c-.1 0-.3.1-.3.3v19.3c0 .1.1.3.3.3h19.3zM115 11.2h18.8V30H115V11.2z"/>
  <path fill="#010101" d="M122 18.3c-1.4 0-2 1.7-2 3.2 0 1.5.6 3.2 2 3.2s2-1.6 2-3.2c0-1.5-.6-3.2-2-3.2zm0 6.1c-1.1 0-1.1-2-1.1-2.9 0-.9.1-2.9 1.1-2.9s1.1 2 1.1 2.9c0 .9-.1 2.9-1.1 2.9zm3.1-3.8l.2-.1c.5-.9.8-1.6 1.3-2.1.5-.6 1-1 1.2-1 .1 0 .1.1.1.2 0 .2-.1.5-.2.6-.2.4-.5 1.3-.7 1.7-.2.4-.2.5-.2.6 0 .1.1.2.2.2.5 0 1.1-.4 1.5-.9 0-.1 0-.1-.1-.1-.2.3-.7.6-.8.6v-.2c0-.1.6-1.4.8-1.9.1-.2.1-.5.1-.6 0-.3-.1-.5-.5-.5-.6 0-1.5.9-2.1 1.8l.6-1.5c.1-.2 0-.3-.2-.3-.4 0-.9.3-1.3.8l.1.1c.3-.2.6-.4.8-.4.1 0 .1.1 0 .2 0 .1-.9 2.6-1 2.7-.1.1.1.1.2.1zm289.3 25.5v-16c0-.1-.1-.3-.3-.3s-.3.1-.3.3v16h.6z"/>
  <path fill="#010101" d="M414.2 49.5l.1-.3 1.8-3.5c-.5.2-1.1.4-1.6.4h-.5c-.6 0-1.1-.2-1.6-.4l1.8 3.5v.3zm.2 63.7V92.9c0-.1-.1-.3-.3-.3s-.3.1-.3.3v20.3h.6z"/>
  <path fill="#010101" d="M414.2 116.6l.1-.3 1.8-3.5c-.5.2-1.1.4-1.6.4h-.5c-.6 0-1.1-.2-1.6-.4l1.8 3.5v.3zm-144.9 27.1c.1 0 .1 0 0 0l.1-2.5v-2.4s0-.1-.1-.1-.1 0-.1.1v2.4l.1 2.5zm53.2-2.6v-2.3s0-.1-.1-.1-.1 0-.1.1v4.8s0 .1.1.1.1 0 .1-.1v-2.5zm17.6 0h-3.8s-.1 0-.1.1 0 .1.1.1h3.8v-.2z"/>
  <path fill="#010101" d="M339.9 140.2c.1.3.2.6.2.9v.1c0 .3-.1.6-.2.9l1.8-.9v-.1l-1.8-.9zm-12.3 1c0-.1 0-.1 0 0l-3.6-.1v.1h3.6z"/>
  <path fill="#010101" d="M324 141.1c0-.3.1-.6.2-.9l-1.7.9h-.1.1l1.7.9c-.1-.3-.2-.6-.2-.9 0 .1 0 0 0 0zm17.8 2.6l.1-4.9s0-.1-.1-.1-.1 0-.1.1v2.4l.1 2.5c-.1 0-.1 0 0 0zm-9.4-1.7l.5-2.4h1.5l.1-.5h-2.4c-.4 0-.7.1-1 .2l.1.5c.3-.1.5-.1.8-.1h.5c-.4 1.7-.5 2.6-.5 2.6 0 .2 0 .3.1.4.1.1.2.2.4.2s.3-.1.5-.2.3-.3.3-.5h-.3v.1l-.1.1-.2.1-.1-.1-.2-.4zm144.4-3.3s-.1.1 0 0l-.1 4.9s0 .1.1.1.1 0 .1-.1v-2.4h-.1.1l-.1-2.5c.1.1 0 0 0 0zm13.9 2.5s.1.1 0 0l3.9.1v-.1h-3.9c.1-.1 0 0 0 0zm5.6 0h-.1"/>
  <path fill="#010101" d="M494.6 141.3c0 .3-.1.6-.2.9l1.6-.8v-.2l-1.6-.8c.1.3.2.6.2.9 0-.1 0-.1 0 0zm-16.2-.1h3.5s.1 0 .1-.1 0-.1-.1-.1h-3.5v.2z"/>
  <path fill="#010101" d="M476.9 141.2l1.8.9c-.1-.3-.2-.6-.2-.9v-.1c0-.3.1-.6.2-.9l-1.8 1zm19.2 2.4c0 .1 0 .1 0 0 .1.1.1 0 .1 0v-4.9s0-.1-.1-.1-.1 0-.1.1v4.9zm-9.5-1.6l.5-2.4h1.5l.1-.5h-2.4c-.4 0-.7.1-1 .2l.1.5c.3-.1.5-.1.8-.1h.5c-.4 1.7-.5 2.6-.5 2.6 0 .2 0 .3.1.4.1.1.2.2.4.2s.3-.1.5-.2.3-.3.3-.5h-.5v.1l-.1.1-.2.1-.1-.1v-.4z"/>
</svg>
