<svg xmlns="http://www.w3.org/2000/svg" version="1.2" baseProfile="tiny" viewBox="112.7 215.5 204.3 183">
  <path fill="#F5D2D0" d="M157.5 390.4h28.7v-14.2h-28.7v14.2zm19.2-7.7l.7-2.5h1.3l-1.4 2.6c-.1.2-.2.2-.3.2l-.2-.1-.1-.2zm-8.3-2.9h2.6v.2c-.3 0-.5.1-.6.2s-.1.2-.1.3c0 .2.1.4.2.7l1.6 3.7 1.5-3.7c.1-.4.2-.6.2-.8 0-.1 0-.2-.1-.3s-.2-.1-.5-.2h-.1v-.2h2v.2c-.2 0-.4.1-.5.2-.2.2-.3.4-.4.7l-2.2 5.4h-.2l-2.4-5.5c-.1-.3-.2-.5-.3-.5-.1-.1-.2-.2-.3-.2-.1-.1-.3-.1-.4-.2zm-3.1 6.2h.2c.3 0 .5-.1.6-.2s.1-.3.1-.7V381c0-.3 0-.5-.1-.6 0-.1-.1-.1-.2-.2s-.3-.1-.4-.1h-.2v-.2h2.7v.2h-.2c-.3 0-.5.1-.6.2s-.1.3-.1.7v4.1c0 .3 0 .5.1.6 0 .1.1.1.2.2s.3.1.4.1h.2v.2h-2.7v-.2z"/>
  <path fill="#231F20" d="M222.5 347h.3v25.2h-.3V347zm-65.2 43.7h29.3v-14.8H172l-.1.2-.1-.2h-14.7v14.8h.2zm29-14.5v14.2h-28.7v-14.2h28.7zm37.7-4h-2.6l1.3 3.7h.1m-51-21.7h.3v18h-.3v-18z"/>
  <path fill="#231F20" d="M172 375.9l1.3-3.7h-2.6l1.2 3.7.1.2m14.8 7.1h17.5v.3h-17.5v-.3zm17.5-1.2v2.6l3.8-1.2v-.1m-38.9-3c.1.1.1.2.3.5l2.4 5.5h.2l2.2-5.4c.1-.3.3-.6.4-.7.1-.1.3-.2.5-.2v-.2h-2v.2h.1c.2 0 .4.1.5.2s.1.2.1.3-.1.4-.2.8l-1.5 3.7-1.6-3.7c-.1-.3-.2-.6-.2-.7s0-.2.1-.3c.1-.1.3-.1.6-.2v-.2h-2.6v.2c.2 0 .3.1.5.1.1 0 .2 0 .2.1zm-1 5.7h-.3c-.2 0-.3 0-.4-.1-.1-.1-.2-.1-.2-.2s-.1-.3-.1-.6V381c0-.4 0-.6.1-.7.1-.2.3-.2.6-.2h.2v-.2h-2.7v.2h.2c.2 0 .3 0 .4.1s.2.1.2.2.1.3.1.6v4.1c0 .4 0 .6-.1.7-.1.2-.3.2-.6.2h-.2v.2h2.7l.1-.2zm8.8-2.9c.1 0 .2-.1.3-.2l1.4-2.6h-1.3l-.7 2.5v.1l.1.2h.2z"/>
  <path fill="#F9F1AD" d="M273.2 376.2h-14.1v14.2h14.2v-14.2h-.1zm-3.1 9.2h-7.7v-.5h3.6v-5.4h.5v5.4h3.6v.5z"/>
  <path fill="#231F20" d="M258.7 383.4v7.3h14.8v-14.8h-14.8v7.3l.2.1-.2.1zm.4-7.2h14.2v14.2h-14.2v-14.2z"/>
  <path fill="#231F20" d="M266.3 379.5h-.5v5.4h-3.6v.5h7.8v-.5h-3.7"/>
  <path fill="#F5D2D0" d="M237 376.2h-28.7v14.2H237v-14.2zm-22.5 3.4c.1-.1.2-.1.3-.1s.2 0 .3.1.1.2.1.3c0 .1 0 .2-.1.3s-.2.1-.3.1-.2 0-.3-.1-.1-.2-.1-.3c-.2-.1-.1-.2.1-.3zm1.4 6.6h-2.1v-.2c.2 0 .4 0 .4-.1.1 0 .1-.1.2-.2 0-.1.1-.3.1-.5v-2.6c0-.1-.1-.2-.1-.2l-.2-.1c-.1 0-.2 0-.3.1l-.1-.2 1.3-.5h.2v3.5c0 .3 0 .5.1.5l.2.2c.1 0 .2.1.4.1l-.1.2zm4.3-5.6c-.1.1-.2.1-.3.1l-.2-.1-.3-.3c-.1-.2-.2-.3-.3-.3s-.2-.1-.3-.1-.3 0-.4.1-.2.2-.2.4-.1.6-.1 1.3v.3h1.1v.3h-1.1v2.8c0 .4 0 .7.1.8.1.1.3.2.5.2h.4v.2h-2.6v-.2h.2c.1 0 .2 0 .3-.1s.2-.1.2-.3c0-.1.1-.3.1-.6v-2.9h-.8v-.3h.8v-.3c0-.4.1-.8.2-1.1s.4-.5.6-.7c.3-.2.6-.3 1-.3.3 0 .6.1.9.3.2.1.3.3.3.5-.1.1-.2.2-.1.3zm11.6 1.8H229l-.5 1.2h3.3v.4h-3.5l-1 2.3-.3-.1.9-2.2h-1.3v-.4h1.4l.5-1.2h-1.9v-.4h2.1l1.1-2.5.3.1-1 2.4h2.7v.4z"/>
  <path fill="#231F20" d="M208 383.3v7.4h29.3v-7.2H255v-.3h-17.7V376H208v7.3zm.3-7.1H237v14.2h-28.7v-14.2z"/>
  <path fill="#231F20" d="M258.7 383.3l-3.8-1.3v2.6l3.8-1.2.1-.1m-32.1-1.3h5.1v.4h-5.1zm-11.5 3.7c0-.1-.1-.3-.1-.5v-3.5h-.2l-1.3.5.1.2c.1 0 .2-.1.3-.1l.2.1s.1.1.1.2v2.6c0 .3 0 .4-.1.5 0 .1-.1.2-.2.2s-.2.1-.4.1v.2h2.1v-.2c-.2 0-.3 0-.4-.1l-.1-.2zm3.8-6.2c-.4 0-.7.1-1 .3-.3.2-.5.4-.6.7-.1.3-.2.7-.2 1.1v.3h-.8v.3h.8v2.8c0 .3 0 .5-.1.6 0 .1-.1.2-.2.3-.1.1-.2.1-.3.1h-.2v.2h2.6v-.2h-.4c-.2 0-.4-.1-.5-.2-.1-.1-.1-.4-.1-.8v-2.8h1.1v-.3H218v-.3c0-.7 0-1.1.1-1.3 0-.2.1-.3.2-.4.1-.1.2-.1.4-.1.1 0 .2 0 .3.1l.3.3c.1.2.2.3.3.3l.2.1c.1 0 .2 0 .3-.1.1-.1.1-.2.1-.3 0-.2-.1-.3-.3-.5-.2-.1-.7-.2-.9-.2zm7.7 4.1h5.1v.3h-5.1zm-12-3.2c.1 0 .2 0 .3-.1s.1-.2.1-.3 0-.2-.1-.3c-.1-.1-.2-.1-.3-.1s-.2 0-.3.1-.1.2-.1.3 0 .2.1.3c.1.1.2.1.3.1z"/>
  <path fill="#F9F1AD" d="M251.7 224h58v14.5h-58V224z"/>
  <path fill="none" d="M251.7 224.2h57.7v14.2h-57.7v-14.2z"/>
  <path fill="#231F20" d="M251.5 238.6h58.3v-14.7h-58.3v14.7zm.3-14.4h57.7v14.2h-57.7v-14.2zm28.7 17.7h.3v40.2h-.3v-40.2z"/>
  <path fill="#231F20" d="M279.3 242.4h2.6l-1.3-3.9m-3.4-4.8c-.1.2-.4.2-.7.2h-.1l-.1.2h2.1l.1-.2c-.3 0-.5-.1-.6-.1-.1-.1-.1-.1-.1-.3 0-.1 0-.3.1-.7l1.1-4 .6 5.2h.2l3.7-5.2-1.1 3.7c-.1.5-.2.8-.3.9l-.3.3c-.1.1-.3.1-.5.1h-.1v.2h2.7v-.2h-.1c-.3 0-.4 0-.6-.1-.1-.1-.1-.2-.1-.3s0-.3.1-.6l1.2-4.1c.1-.3.2-.6.3-.7.1-.1.2-.2.3-.2.1 0 .3 0 .6-.1v-.2H284l-3.7 5.1-.6-5.1h-1.6v.2c.3 0 .4.1.5.1s.2.1.3.2l-1.4 4.8c-.2.5-.3.8-.3.9z"/>
  <path fill="#CBE3F0" d="M251.7 332.6h58v14.5h-58v-14.5z"/>
  <path fill="none" d="M251.7 332.8h57.7V347h-57.7v-14.2z"/>
  <path fill="#231F20" d="M251.5 347.3h58.3v-14.8h-58.3v14.8zm.3-14.5h57.7V347h-57.7v-14.2z"/>
  <path fill="#231F20" d="M283.7 336.5h-.2c-.1 0-.2 0-.4-.1-.4-.1-.7-.2-1-.2-.7 0-1.3.2-2 .6s-1.2.9-1.5 1.6c-.4.7-.6 1.3-.6 2 0 .5.1.9.3 1.3.2.4.5.7.9.9.4.2.9.3 1.4.3.6 0 1.1-.1 1.5-.4s.8-.7 1.2-1.2h-.2c-.3.4-.6.7-1 .9-.3.2-.7.3-1.2.3-.6 0-1-.2-1.4-.6s-.5-.9-.5-1.5.1-1.2.4-1.8c.3-.7.7-1.3 1.3-1.7.4-.3.9-.5 1.5-.5.2 0 .4 0 .6.1s.3.1.4.3c.1.2.2.2.3.4.1.1.1.3.1.5v.5h.2l.5-2.1h-.2c-.3.2-.3.3-.4.4z"/>
  <path fill="#CBE3F0" d="M208.3 347H237v-14.2h-28.7V347zm12.6-10.7h2.6v.2c-.3 0-.5.1-.6.2s-.1.2-.1.3c0 .2.1.4.2.7l1.6 3.7 1.5-3.7c.1-.4.2-.6.2-.8 0-.1 0-.2-.1-.3s-.2-.1-.5-.2h-.1v-.2h2v.2c-.2 0-.4.1-.5.2-.2.2-.3.4-.4.7l-2.2 5.4h-.2l-2.4-5.5c-.1-.3-.2-.5-.3-.5-.1-.1-.2-.2-.3-.2-.2-.1-.4-.1-.4-.2zm-3.2 6.3h.2c.3 0 .5-.1.6-.2s.1-.3.1-.7v-4.1c0-.3 0-.5-.1-.6 0-.1-.1-.1-.2-.2s-.3-.1-.4-.1h-.2v-.2h2.7v.2h-.2c-.3 0-.5.1-.6.2s-.1.3-.1.7v4.1c0 .3 0 .5.1.6 0 .1.1.1.2.2s.3.1.4.1h.2v.2h-2.7v-.2z"/>
  <path fill="#231F20" d="M280.5 314.8h.3v18h-.3v-18zm-57.6 18H237V347h-28.6v-14.2h14.1v-.3h-14.4v14.8h29.3v-14.8h-14.5m59.1-17.7l-1.3-3.9-1.3 3.9h1.4m-51-18.5h.1-.1zm-36.2-36.2h87.3v.3h-87.3v-.3zm36.5 36.2v.3h-.1 25v-.3m3.9.1l-3.9-1.3v2.6"/>
  <path fill="#231F20" d="M230 296.3h-.3c-4 .2-6.5 3.8-7.2 7.2v29.2h.3v-29c.7-3.4 3.2-7 7.1-7.1h.2l-.1-.3zm-8.3 40.6c.1.1.1.2.3.5l2.4 5.5h.2l2.2-5.4c.1-.3.3-.6.4-.7s.3-.2.5-.2v-.2h-2v.2h.1c.2 0 .4.1.5.2s.1.2.1.3c0 .1-.1.4-.2.8l-1.5 3.7-1.6-3.7c-.1-.3-.2-.6-.2-.7s0-.2.1-.3.3-.1.6-.2v-.2h-2.7v.2c.2 0 .3.1.5.1.1-.1.1 0 .3.1zm-1.2 5.7h-.2c-.2 0-.3 0-.4-.1s-.2-.1-.2-.2-.1-.3-.1-.6v-4.1c0-.4 0-.6.1-.7.1-.2.3-.2.6-.2h.2v-.2h-2.7v.2h.2c.2 0 .3 0 .4.1.1.1.2.1.2.2s.1.3.1.6v4.1c0 .4 0 .6-.1.7-.1.2-.3.2-.6.2h-.2v.2h2.7v-.2zm-62.9-82.2h-.4v61.1h-1l1.2 3.7h.1l1.3-3.7h-1.2m28.8 3.7h.1l1.3-3.7h-2.6m8.5-61.4c-2.9.1-6.4 2.4-7.4 7.2v54.1h.3v-53.9c.9-4.8 4.3-7 7.1-7.1h.2v-.3h-.2zm-36.1 0v.2-.2z"/>
  <path fill="#FAE1B9" d="M208 224.2h-28.7v14.2H208v-14.2zm-13.5 4.8l-1.1 3.9c-.1.3-.1.5-.1.7 0 .1 0 .2.1.3s.3.1.6.1l-.1.2h-2.5l.1-.2c.2 0 .4 0 .5-.1s.2-.1.3-.2c.1-.1.2-.4.3-.8l.6-2h-3l-.6 2c-.1.3-.1.5-.1.7 0 .1 0 .2.1.3s.3.1.6.1v.2h-2.5l.1-.2c.2 0 .4 0 .5-.1s.2-.1.3-.2c.1-.1.2-.4.3-.8l1.1-3.9c.1-.3.1-.6.1-.7l-.1-.2-.2-.1h-.5l.1-.2h2.5l-.1.2c-.2 0-.4 0-.5.1s-.3.1-.3.2c-.1.1-.2.4-.3.8l-.5 1.6h3l.5-1.6c.1-.3.1-.5.1-.7l-.1-.2-.2-.1h-.4v-.2h2.6l-.1.2c-.2 0-.4 0-.5.1-.2.1-.3.2-.3.3 0-.1-.1.1-.3.5zm4.4 6.2l-.3.3c-.1.1-.2.1-.3.1l-.2-.1-.1-.2c0-.1 0-.3.1-.6l.3-1c.1-.2.1-.4.1-.4v-.2h-.1c-.1 0-.2 0-.3.1-.3.3-.5.6-.8 1.1-.2.3-.3.7-.5 1.2h-.5l.5-1.9c.1-.2.1-.3.1-.4v-.1h-.1l-.2.1c-.1.1-.3.2-.5.5s-.3.5-.4.8c-.1.1-.2.5-.4 1.1h-.5l.6-2 .1-.3v-.1l-.1-.1-.2-.1h-.2v-.1l1.1-.2-.4 1.4c.2-.3.3-.6.5-.7.2-.3.4-.4.6-.6.1-.1.2-.1.3-.1s.2 0 .3.1.1.1.1.3c0 .1 0 .2-.1.4l-.2.8c.3-.6.6-1.1.9-1.3.2-.1.3-.2.5-.2.1 0 .2 0 .2.1s.1.2.1.3 0 .2-.1.4l-.3 1.2c-.1.3-.1.4-.1.4v.1l.1-.1c.1-.1.2-.2.3-.4l.1.1c.2 0 .1.2 0 .3z"/>
  <path fill="#231F20" d="M193.5 238.3h-14.2v-14.1H208v14.1h-14.2v.3h14.5v-14.7H179v14.7h14.5"/>
  <path fill="#231F20" d="M195.2 228c.1 0 .3-.1.5-.1l.1-.2h-2.6v.2h.5l.2.1.1.2c0 .2 0 .4-.1.7l-.5 1.6h-3l.5-1.6c.1-.4.2-.6.3-.8.1-.1.2-.2.3-.2s.3-.1.5-.1l.1-.2h-2.5l-.1.2h.5l.2.1.1.2c0 .2 0 .4-.1.7l-1.1 3.9c-.1.4-.2.7-.3.8s-.2.2-.3.2-.2.1-.5.1l-.1.2h2.5v-.2c-.3 0-.5-.1-.6-.1-.1-.1-.1-.2-.1-.3s0-.4.1-.7l.6-2h3l-.6 2c-.1.4-.2.7-.3.8s-.1.2-.3.2c-.1 0-.2.1-.5.1l-.1.2h2.5l.1-.2c-.3 0-.5-.1-.6-.1-.1-.1-.1-.2-.1-.3s0-.4.1-.7l1.1-3.9c.1-.4.2-.6.3-.8-.1.1 0 0 .2 0zm3.6 7.2l-.1.1v-.1s0-.2.1-.4l.3-1.2c0-.1.1-.3.1-.4s0-.2-.1-.3-.1-.1-.2-.1c-.2 0-.3.1-.5.2-.3.3-.6.7-.9 1.3l.2-.8c0-.2.1-.3.1-.4 0-.1 0-.2-.1-.3s-.2-.1-.3-.1-.2 0-.3.1c-.2.1-.4.3-.6.6-.1.2-.3.4-.5.7l.4-1.4-1.1.2v.1h.2l.2.1.1.1v.1l-.1.3-.6 2h.5c.2-.6.3-1 .4-1.1.1-.2.3-.5.4-.8.2-.3.4-.4.5-.5l.2-.1h.1v.1c0 .1 0 .2-.1.4l-.5 1.9h.5c.1-.5.3-.9.5-1.2.2-.5.5-.8.8-1.1.1-.1.2-.1.3-.1h.1v.2s0 .1-.1.4l-.3 1c-.1.3-.1.5-.1.6l.1.2.2.1c.1 0 .2 0 .3-.1s.2-.1.3-.3c.1-.1.2-.3.3-.3l-.1-.1c-.5.2-.6.3-.6.4z"/>
  <path fill="#FAE1B9" d="M150 224.2h-28.7v14.2H150v-14.2zm-12.5 4c-.1.1-.2.4-.3.8l-1.1 3.9c-.1.3-.1.5-.1.7 0 .1 0 .2.1.3s.3.1.6.1l-.1.2h-2.5l.1-.2c.2 0 .4 0 .5-.1s.2-.1.3-.2c.1-.1.2-.4.3-.8l.6-2h-3l-.6 2c-.1.3-.1.5-.1.7 0 .1 0 .2.1.3s.3.1.6.1v.2h-2.5l.1-.2c.2 0 .4 0 .5-.1s.2-.1.3-.2c.1-.1.2-.4.3-.8l1.1-3.9c.1-.3.1-.6.1-.7l-.1-.2-.2-.1h-.4l.1-.2h2.5l-.1.2c-.2 0-.4 0-.5.1s-.3.1-.3.2c-.1.1-.2.4-.3.8l-.5 1.6h3l.5-1.6c.1-.3.1-.5.1-.7l-.1-.2-.2-.1h-.5v-.2h2.6l-.1.2c-.2 0-.4 0-.5.1-.1-.2-.1-.1-.3 0zm2.5 7.3h-1.6v-.1c.2 0 .3 0 .4-.1l.1-.1V232l-.1-.1h-.1c-.1 0-.2 0-.3.1v-.1l1-.5h.1v3.9l.1.1s.1 0 .4.1z"/>
  <path fill="#231F20" d="M172 260.4h-.3v-.2 61.3h.3m-21.7-82.9v-14.7H121v14.8h14.5v7.1c0 4 3.2 7.3 7.2 7.4h7.6c1.8 0 3.5.7 4.8 2 1.4 1.4 2.2 3.2 2.1 5.1v.2h.3v-.4c0-1.9-.8-3.8-2.2-5.1-1.4-1.4-3.3-2.2-5.2-2.1h-7.2c-3.9 0-7.1-3.2-7.1-7.1v-7.1h14.5v-.1zm-29-14.4H150v14.2h-28.7v-14.2zm50.4 35.9v.1-.1zm1.5 61.4h-2.6l1.2 3.7h.1"/>
  <path fill="#231F20" d="M139.5 231.3l-1.1.5v.1c.1-.1.2-.1.3-.1h.1l.1.1v3.2l-.1.1c-.1 0-.2 0-.4.1v.1h1.6v-.1c-.3 0-.4 0-.5-.1v-3.9zm-3.6-3.6v.2h.5l.2.1.1.2c0 .2 0 .4-.1.7l-.5 1.6h-3l.5-1.6c.1-.4.2-.6.3-.8.1-.1.2-.2.3-.2.1 0 .3-.1.5-.1l.1-.2h-2.5l-.1.2h.5l.2.1.1.2c0 .2 0 .4-.1.7l-1.1 3.9c-.1.4-.2.7-.3.8-.1.1-.2.2-.3.2-.1 0-.2.1-.5.1l-.1.2h2.5v-.2c-.3 0-.5-.1-.6-.1-.1-.1-.1-.2-.1-.3 0-.1 0-.4.1-.7l.6-2h3l-.6 2c-.1.4-.2.7-.3.8-.1.1-.1.2-.3.2-.1 0-.2.1-.5.1l-.1.2h2.5l.1-.2c-.3 0-.5-.1-.6-.1-.1-.1-.1-.2-.1-.3 0-.1 0-.4.1-.7l1.1-3.9c.1-.4.2-.6.3-.8l.3-.3h-2.1zm57.5 10.7v7.4c0 3.9-3.2 7.1-7.1 7.1H179c-1.9 0-3.7.7-5 2.1-1.4 1.4-2.2 3.2-2.2 5.1v.4l.2-.1v-.2c0-1.9.8-3.7 2.1-5.1 1.3-1.3 3-2 4.8-2h7.6c4-.1 7.1-3.3 7.2-7.2v-7.5h-.3z"/>
  <path fill="#F5D2D0" d="M259.1 310.8h43.2v-28.7h-43.2v28.7zm32.9-14.4c.3 0 .6.1.8.3.2.2.3.5.3.8 0 .2 0 .4-.1.6-.2.3-.4.7-.7 1.1-.5.6-.8.9-1 1h1.6l.2-.1c.1 0 .1-.1.2-.2h.1l-.3.8h-2.5v-.1c.7-.7 1.2-1.2 1.5-1.6s.4-.8.4-1.1-.1-.5-.2-.6c-.2-.2-.4-.3-.6-.3s-.4.1-.6.2-.3.3-.4.5h-.1c.1-.4.2-.7.4-.9.3-.3.6-.4 1-.4zm-5.3 4c.1-.1.1-.3.2-.5l.7-2.5c.1-.2.1-.3.1-.5l-.1-.2c-.1 0-.2-.1-.3-.1h-.1v-.1h1.6v.1h-.3l-.2.2c0 .1-.1.2-.2.5l-.3 1.1 1.5-1.1c.2-.1.3-.3.4-.3l.1-.1-.1-.1-.2-.1v-.1h1.3v.1c-.1 0-.3.1-.4.1s-.2.1-.3.2c0 0-.2.2-.6.5l-1.3 1 1 1.6c.2.3.3.5.5.5.1.1.3.1.5.1v.1h-1.8v-.1c.1 0 .2 0 .3-.1l.1-.2v-.2s-.1-.1-.2-.3l-.8-1.3-.4 1.4c-.1.2-.1.4-.1.4l.1.2c.1 0 .2.1.4.1v.1h-1.6v-.1h.3l.2-.3zm-6.7-1.3h.2c.3 0 .5-.1.6-.3.1-.1.1-.3.1-.7V294c0-.4 0-.7-.1-.7-.1-.1-.3-.2-.5-.2h-.2v-.2h2.3c.7 0 1.2 0 1.5.1s.6.3.8.5c.2.2.3.6.3 1s-.1.7-.4 1-.7.5-1.2.6l1.3 1.8c.3.4.6.7.8.8.2.1.5.2.8.3v.2h-1.7l-2.2-3h-.6v2c0 .4 0 .7.1.7.1.1.3.2.5.2h.3v.2H280v-.2zm-5.7-6.2h5.2l.1 1.5h-.2c0-.3-.1-.5-.1-.6-.1-.2-.2-.3-.4-.4-.2-.1-.4-.1-.6-.1h-.9v4.9c0 .4 0 .6.1.7s.3.2.6.2h.2v.2h-2.7v-.2h.2c.3 0 .5-.1.6-.2s.1-.3.1-.7v-4.9h-.8c-.3 0-.5 0-.6.1-.2.1-.3.2-.4.3-.1.2-.2.4-.2.7h-.2v-1.5zm-6 1.5c.3-.5.7-.9 1.2-1.2s1-.4 1.6-.4c.5 0 .9.1 1.4.3.1.1.2.1.3.1l.2-.1c.1-.1.1-.2.2-.4h.2l.1 2.2h-.1c-.2-.7-.5-1.1-.8-1.4-.4-.3-.8-.4-1.3-.4-.4 0-.8.1-1.2.3-.4.2-.6.6-.8 1-.2.5-.3 1.1-.3 1.8 0 .6.1 1.1.3 1.5s.5.7.8 1c.4.2.8.3 1.3.3.4 0 .8-.1 1.1-.3s.7-.5 1-1.1l.1.1c-.3.6-.7 1-1.1 1.2-.4.3-.9.4-1.5.4-1.1 0-1.9-.4-2.5-1.2-.4-.6-.7-1.3-.7-2.1.1-.4.2-1 .5-1.6z"/>
  <path fill="#F5D2D0" d="M282.1 296c.6 0 1.1-.1 1.4-.4s.5-.6.5-1-.1-.7-.4-1c-.2-.2-.6-.4-1-.4-.2 0-.4 0-.7.1v2.7h.2z"/>
  <path fill="#231F20" d="M258.7 281.8v29.3h43.8v-29.3h-43.8zm43.5 29h-43.1v-28.7h43.2v28.7h-.1z"/>
  <path fill="#231F20" d="M271.1 299.4c.6 0 1.1-.1 1.5-.4s.8-.7 1.1-1.2l-.1-.1c-.4.5-.7.9-1 1.1s-.7.3-1.1.3c-.5 0-.9-.1-1.3-.3-.4-.2-.7-.6-.8-1-.1-.4-.3-.9-.3-1.5 0-.7.1-1.3.3-1.8.2-.5.5-.8.8-1s.7-.3 1.2-.3.9.1 1.3.4.6.8.8 1.4h.1l-.1-2.2h-.2c0 .2-.1.3-.2.4h-.2c-.1 0-.2 0-.3-.1-.5-.2-.9-.3-1.4-.3-.6 0-1.1.1-1.6.4s-.9.7-1.2 1.2-.4 1.1-.4 1.8c0 .8.2 1.5.7 2.1.4.7 1.3 1.1 2.4 1.1zm3.5-5.7c.1-.2.3-.3.4-.3s.3-.1.6-.1h.8v4.9c0 .4 0 .6-.1.7-.1.2-.3.2-.6.2h-.2v.2h2.7v-.2h-.2c-.2 0-.4-.1-.6-.2-.1-.1-.1-.3-.1-.7v-4.9h.9c.3 0 .5 0 .6.1s.3.2.4.4c.1.1.1.3.1.6h.2l-.1-1.5h-5.2l-.1 1.5h.2c.1-.3.2-.5.3-.7zm8.3 5.4h-.3c-.2 0-.4-.1-.5-.2s-.1-.3-.1-.7v-1.9h.6l2.2 3h1.7v-.2c-.3 0-.6-.1-.8-.3s-.5-.4-.8-.8l-1.3-1.8c.5-.1.9-.3 1.2-.6.3-.3.4-.6.4-1s-.1-.7-.3-1c-.2-.3-.5-.4-.8-.5s-.8-.1-1.5-.1h-2.3v.2h.2c.2 0 .4.1.5.2s.1.3.1.7v4.1c0 .4 0 .6-.1.7-.1.2-.3.3-.6.3h-.2v.2h2.7v-.3zm-1-5.8c.3-.1.6-.1.7-.1.4 0 .7.1 1 .4.2.2.4.6.4 1s-.2.7-.5 1-.8.4-1.4.4h-.3l.1-2.7zm4.3 7.4h1.6v-.1c-.2 0-.4 0-.4-.1l-.1-.2c0-.1 0-.2.1-.4l.4-1.4.8 1.3c.1.2.2.3.2.3v.2l-.1.2c-.1.1-.2.1-.3.1v.1h1.8v-.1c-.2 0-.4 0-.5-.1l-.5-.5-1-1.6 1.3-1c.4-.3.6-.4.6-.5.1-.1.2-.1.3-.2.1 0 .2-.1.4-.1v-.1h-1.3v.1l.2.1.1.1-.1.1c-.1.1-.2.2-.4.3l-1.5 1.1.3-1.1c.1-.3.1-.4.2-.5l.2-.2h.3v-.1h-1.6v.1h.1c.2 0 .3 0 .3.1l.1.2c0 .1 0 .3-.1.5l-.7 2.5c-.1.3-.1.4-.2.5l-.2.1h-.3v.3zm4.8-3.1c.1-.2.2-.4.4-.5.2-.1.3-.2.6-.2.2 0 .4.1.6.3s.2.4.2.6c0 .3-.1.7-.4 1.1s-.8 1-1.5 1.6v.1h2.5l.3-.8h-.1c-.1.1-.1.2-.2.2l-.5.2h-1.6l1-1c.3-.4.6-.7.7-1.1.1-.2.1-.4.1-.6 0-.3-.1-.5-.3-.8-.2-.2-.5-.3-.8-.3s-.6.1-.8.3c-.2.2-.3.5-.4.9h.2z"/>
  <path fill="#F5D2D0" d="M172.2 337.7l-1.1 2.6h2.2"/>
  <path fill="#F5D2D0" d="M150.3 354.2h43.2v-28.7h-43.2v28.7zm38.2-14.3h.1v3.9l.1.1c.1 0 .2 0 .4.1v.1h-1.6v-.1c.2 0 .3 0 .4-.1l.1-.1v-3.2l-.1-.1h-.1c-.1 0-.2 0-.3.1v-.1l1-.6zm-3.2-4.3c-.3-.1-.5-.1-.5-.2-.1-.1-.2-.2-.2-.3l.1-.2.2-.1.2.1c.1 0 .2.1.3.3.1.1.3.3.4.3 0-.2 0-.3-.1-.5s-.1-.4-.1-.5 0-.2.1-.3l.2-.1.2.1c.1.1.1.2.1.3s0 .3-.1.4c-.1.2-.1.4-.1.5.1-.1.2-.2.4-.3.2-.2.3-.3.4-.3l.2-.1.2.1.1.2-.1.2c-.1.1-.3.1-.6.2-.2 0-.3.1-.5.1.1.1.3.1.4.1.3.1.5.1.6.2s.1.2.1.3l-.1.2-.2.1-.2-.1c-.1 0-.2-.2-.3-.3-.1-.1-.2-.2-.4-.3 0 .1 0 .3.1.4.1.3.1.5.1.6s0 .2-.1.2l-.2.1-.2-.1s-.1-.1-.1-.2 0-.2.1-.4.1-.3.1-.3v-.3c-.1.1-.3.2-.4.3l-.4.4-.2.1-.2-.1-.1-.2.1-.2c0-.1.1-.1.2-.2.1 0 .2-.1.4-.1.1 0 .3-.1.4-.1.1.1-.2 0-.3 0zm-2.9 8.4h.3l.2-.1c.1-.1.1-.3.2-.5l.7-2.5c.1-.2.1-.3.1-.5l-.1-.2c-.1 0-.2-.1-.3-.1h-.1v-.1h1.6v.1h-.3l-.2.2c0 .1-.1.2-.2.5l-.3 1.1 1.5-1.1c.2-.1.3-.3.4-.3l.1-.1-.1-.1-.2-.1v-.1h1.3v.1c-.1 0-.3.1-.4.1s-.2.1-.3.2c0 0-.2.2-.6.5l-1.3 1 1 1.6c.2.3.3.5.5.5.1.1.3.1.5.1v.1h-1.8v-.1c.1 0 .2 0 .3-.1l.1-.2v-.2s-.1-.1-.2-.3l-.8-1.3-.4 1.4c-.1.2-.1.4-.1.4l.1.2c.1 0 .2.1.4.1v.1h-1.6v-.3zm-5.5-6.1c.3-.5.7-.9 1.2-1.2s1-.4 1.6-.4c.5 0 .9.1 1.4.3.1.1.2.1.3.1l.2-.1c.1-.1.1-.2.2-.4h.2l.1 2.2h-.2c-.2-.7-.5-1.1-.8-1.4-.4-.3-.8-.4-1.3-.4-.4 0-.8.1-1.2.3-.4.2-.6.6-.8 1-.2.5-.3 1.1-.3 1.8 0 .6.1 1.1.3 1.5s.5.7.8 1 .8.3 1.3.3c.4 0 .8-.1 1.1-.3s.7-.5 1-1.1l.1.1c-.3.6-.7 1-1.1 1.2-.4.3-.9.4-1.5.4-1.1 0-1.9-.4-2.5-1.2-.4-.6-.7-1.3-.7-2.1.1-.5.3-1.1.6-1.6zm-7.7 4.7c.3 0 .4-.1.5-.2.2-.2.3-.5.5-.9l2.3-5.3h.2l2.2 5.3c.2.4.3.7.5.8.1.1.3.2.6.2v.2h-2.5v-.2c.3 0 .4-.1.5-.1.1-.1.1-.2.1-.3s-.1-.4-.2-.7l-.4-.9H171l-.4 1c-.1.2-.2.4-.2.6 0 .1 0 .2.1.3s.3.1.6.1v.2h-2l.1-.1zm-8.5 0h.2c.3 0 .5-.1.6-.2s.1-.3.1-.7v-4.2c0-.3 0-.5-.1-.6 0-.1-.1-.2-.2-.2-.1-.1-.3-.1-.6-.1v-.2h1.8l2.3 5 2.3-5h1.8v.2h-.2c-.3 0-.5.1-.6.2s-.1.3-.1.7v4.2c0 .4 0 .6.1.7s.3.2.6.2h.2v.2h-2.7v-.2h.2c.3 0 .5-.1.6-.2s.1-.3.1-.7v-4.3l-2.5 5.4h-.2l-2.5-5.4v4.3c0 .4 0 .6.1.7s.3.2.6.2h.2v.2h-2.2l.1-.2zm-5.9-4.7c.3-.5.7-.9 1.2-1.2s1-.4 1.6-.4c.5 0 .9.1 1.4.3.1.1.2.1.3.1l.2-.1c.1-.1.1-.2.2-.4h.2l.1 2.2h-.1c-.2-.7-.5-1.1-.8-1.4-.4-.3-.8-.4-1.3-.4-.4 0-.8.1-1.2.3-.4.2-.6.6-.8 1-.2.5-.3 1.1-.3 1.8 0 .6.1 1.1.3 1.5s.5.7.8 1 .8.3 1.3.3c.4 0 .8-.1 1.1-.3s.7-.5 1-1.1l.1.1c-.3.6-.7 1-1.1 1.2-.4.3-.9.4-1.5.4-1.1 0-1.9-.4-2.5-1.2-.4-.6-.7-1.3-.7-2.1.1-.5.2-1.1.5-1.6z"/>
  <path fill="#231F20" d="M150 325.2v29.3h43.8v-29.3H150zm43.5 29h-43.2v-28.7h43.2v28.7z"/>
  <path fill="#231F20" d="M162.9 342.6h-.2c-.3 0-.4-.1-.6-.2-.1-.1-.1-.3-.1-.7v-4.3l2.5 5.4h.2l2.5-5.4v4.3c0 .4 0 .6-.1.7-.1.2-.3.2-.6.2h-.2v.2h2.7v-.2h-.2c-.3 0-.4-.1-.6-.2-.1-.1-.1-.3-.1-.7v-4.2c0-.4 0-.6.1-.7.1-.2.3-.2.6-.2h.2v-.2h-1.9l-2.3 5-2.3-5h-1.8v.2c.3 0 .5 0 .6.1s.2.1.2.2c.1.1.1.3.1.6v4.2c0 .4 0 .6-.1.7-.1.2-.3.2-.6.2h-.2v.2h2.2v-.2zm8.3 0c-.3 0-.5-.1-.6-.1-.1-.1-.1-.2-.1-.3 0-.1.1-.3.2-.6l.4-1h2.5l.4.9c.1.3.2.5.2.7 0 .1 0 .2-.1.3-.1.1-.3.1-.5.1v.2h2.5v-.2c-.3 0-.5-.1-.6-.2s-.3-.4-.5-.8l-2.2-5.3h-.2l-2.3 5.3c-.2.5-.4.8-.5.9s-.3.1-.5.2v.2h2l-.1-.3zm1.1-4.9l1.1 2.6h-2.2l1.1-2.6zm7.2 5.2c.6 0 1.1-.1 1.5-.4s.8-.7 1.1-1.2l-.1-.1c-.4.5-.7.9-1 1.1s-.7.3-1.1.3c-.5 0-.9-.1-1.3-.3s-.7-.6-.8-1c-.2-.4-.3-.9-.3-1.5 0-.7.1-1.3.3-1.8s.5-.8.8-1 .7-.3 1.2-.3.9.1 1.3.4c.4.3.6.8.8 1.4h.1l-.1-2.3h-.2c0 .2-.1.3-.2.4l-.2.1c-.1 0-.2 0-.3-.1-.5-.2-.9-.3-1.4-.3-.6 0-1.1.1-1.6.4s-.9.7-1.2 1.2-.4 1.1-.4 1.8c0 .8.2 1.5.7 2.1.6.7 1.4 1.1 2.4 1.1zm-22 0c.6 0 1.1-.1 1.5-.4s.8-.7 1.1-1.2l-.1-.1c-.4.5-.7.9-1 1.1s-.7.3-1.1.3c-.5 0-.9-.1-1.3-.3s-.7-.6-.8-1c-.2-.4-.3-.9-.3-1.5 0-.7.1-1.3.3-1.8s.5-.8.8-1 .7-.3 1.2-.3.9.1 1.3.4c.4.3.6.8.8 1.4h.1l-.1-2.3h-.2c0 .2-.1.3-.2.4l-.2.1c-.1 0-.2 0-.3-.1-.5-.2-.9-.3-1.4-.3-.6 0-1.1.1-1.6.4s-.9.7-1.2 1.2-.4 1.1-.4 1.8c0 .8.2 1.5.7 2.1.5.7 1.4 1.1 2.4 1.1zm26.6 1.1c-.2 0-.4 0-.4-.1l-.1-.2c0-.1 0-.2.1-.4l.4-1.4.8 1.3c.1.2.2.3.2.3v.2l-.1.2c-.1.1-.2.1-.3.1v.1h1.8v-.1c-.2 0-.4 0-.5-.1l-.5-.5-1-1.6 1.3-1c.4-.3.6-.4.6-.5.1-.1.2-.1.3-.2.1 0 .2-.1.4-.1v-.1h-1.3v.1l.2.1.1.1-.1.1c-.1.1-.2.2-.4.3l-1.5 1.1.3-1.1c.1-.3.1-.4.2-.5l.2-.2h.3v-.1h-1.6v.1h.1c.2 0 .3 0 .3.1l.1.2c0 .1 0 .3-.1.5l-.7 2.5c-.1.3-.1.4-.2.5l-.2.1h-.3v.1l1.6.1zm3.7-3.6h.1l.1.1v3.2l-.1.1c-.1 0-.2 0-.4.1v.1h1.6v-.1c-.2 0-.3 0-.4-.1l-.1-.1v-3.9h-.1l-1 .5v.1h.3zm-2.9-4.4c-.1 0-.2.1-.2.2l-.1.2.1.2.2.1.2-.1.4-.4c.1-.1.2-.2.4-.3v.3c0 .1 0 .2-.1.3-.1.2-.1.3-.1.4s0 .2.1.2l.2.1.2-.1c.1-.1.1-.1.1-.2s0-.3-.1-.6c0-.2-.1-.3-.1-.4.1.1.3.2.4.3.1.2.3.3.3.3l.2.1.2-.1.1-.2c0-.1 0-.2-.1-.3-.1-.1-.3-.1-.6-.2-.2 0-.3-.1-.4-.1.1-.1.3-.1.5-.1.3-.1.5-.1.6-.2l.1-.2-.1-.2-.2-.1-.2.1c-.1 0-.2.2-.4.3-.1.1-.2.2-.4.3 0-.2.1-.3.1-.5.1-.2.1-.3.1-.4s0-.2-.1-.3l-.2-.1-.2.1c-.1.1-.1.2-.1.3s0 .2.1.5c.1.2.1.3.1.5-.1-.1-.3-.2-.4-.3l-.3-.3-.2-.1-.2.1-.1.2c0 .1.1.2.2.3.1 0 .2.1.5.2.2 0 .3.1.5.1-.1.1-.3.1-.4.1-.3-.1-.5 0-.6 0z"/>
  <path stroke="#000" stroke-width=".5" stroke-miterlimit="10" d="M228 386.3l2.5-6.8"/>
</svg>
